<svg width="60" height="60" viewBox="0 0 60 60" fill="none" xmlns="http://www.w3.org/2000/svg">
<g clip-path="url(#clip0_67_730)">
<path fill-rule="evenodd" clip-rule="evenodd" d="M21.225 2.86743H38.775C44.825 2.86743 49.75 7.6549 49.75 13.4024C49.75 16.7624 48.065 19.7974 45.455 21.7349C48.065 23.6749 49.75 26.7075 49.75 30.07C49.75 35.815 44.825 40.6024 38.775 40.6024C36.31 40.6024 34.0325 39.8099 32.2 38.4799V46.7349C32.2 52.4824 27.2775 57.2699 21.225 57.2699C15.175 57.2699 10.25 52.4824 10.25 46.7349C10.25 43.3749 11.935 40.3424 14.545 38.4024C11.935 36.4624 10.25 33.43 10.25 30.07C10.25 26.7075 11.935 23.6749 14.545 21.7349C11.935 19.7974 10.25 16.7624 10.25 13.4024C10.25 7.6549 15.175 2.86743 21.225 2.86743ZM27.8 40.6024H21.225C17.65 40.6024 14.65 43.3399 14.65 46.7349C14.65 50.1324 17.65 52.8674 21.225 52.8674C24.8025 52.8674 27.8 50.1324 27.8 46.7349V40.6024ZM32.2 30.07C32.2 26.6725 35.1975 23.9349 38.775 23.9349C42.35 23.9349 45.35 26.6725 45.35 30.07C45.35 33.465 42.35 36.2024 38.775 36.2024C35.1975 36.2024 32.2 33.465 32.2 30.07ZM21.1425 23.9375C17.6025 23.9775 14.65 26.7 14.65 30.07C14.65 33.465 17.65 36.2024 21.225 36.2024H27.8V23.9349H21.225L21.1425 23.9375ZM27.8 19.5349V7.2699H21.225C17.65 7.2699 14.65 10.0049 14.65 13.4024C14.65 16.7999 17.65 19.5349 21.225 19.5349H27.8ZM32.2 19.5349H38.775C42.35 19.5349 45.35 16.7999 45.35 13.4024C45.35 10.0049 42.35 7.2699 38.775 7.2699H32.2V19.5349Z" fill="white"/>
</g>
<defs>
<clipPath id="clip0_67_730">
<rect width="60" height="60" fill="white"/>
</clipPath>
</defs>
</svg>
