<svg width="48" height="48" viewBox="0 0 48 48" fill="none" xmlns="http://www.w3.org/2000/svg">
<path d="M27.72 21.4999C27.5307 21.475 27.3381 21.4931 27.1567 21.5528C26.9753 21.6126 26.8098 21.7125 26.6723 21.8452C26.5349 21.9778 26.4292 22.1397 26.363 22.3189C26.2968 22.498 26.2718 22.6898 26.29 22.8799C26.29 23.6099 26.69 24.1199 27.68 24.1199C27.8574 24.1381 28.0366 24.1188 28.206 24.0632C28.3755 24.0077 28.5313 23.917 28.6633 23.7972C28.7954 23.6774 28.9007 23.5311 28.9725 23.3679C29.0443 23.2047 29.081 23.0282 29.08 22.8499C29.0991 22.6671 29.0769 22.4823 29.0152 22.3091C28.9534 22.136 28.8537 21.9788 28.7232 21.8493C28.5927 21.7198 28.4349 21.6212 28.2613 21.5607C28.0877 21.5003 27.9027 21.4795 27.72 21.4999ZM26.08 28.3599C25.8613 28.5693 25.7233 28.849 25.69 29.1499C25.69 29.7499 26.45 29.9299 27.5 29.9299C28.36 29.9299 29.5 29.8599 29.5 29.0599C29.5 28.5799 28.94 28.5499 28.22 28.5099L26.04 28.3599H26.08ZM30.5 21.5499C30.8551 21.973 31.0498 22.5076 31.05 23.0599C31.05 24.7099 29.75 25.6799 27.87 25.6799C27.4729 25.6836 27.0768 25.6399 26.69 25.5499L26.2 26.3399L27.66 26.4299C30.24 26.5999 31.77 26.6699 31.77 28.6599C31.77 30.3699 30.26 31.3399 27.66 31.3399C25.06 31.3399 23.93 30.6599 23.93 29.4799C23.9502 29.1883 24.0341 28.9046 24.1758 28.6489C24.3175 28.3932 24.5135 28.1717 24.75 27.9999C24.5468 27.9268 24.3726 27.7899 24.2537 27.6097C24.1347 27.4294 24.0773 27.2155 24.09 26.9999C24.1117 26.6527 24.2656 26.3271 24.52 26.0899C24.79 25.7999 25.09 25.5199 25.45 25.1899C25.0439 24.9791 24.7072 24.6557 24.4802 24.2584C24.2532 23.8611 24.1455 23.4068 24.17 22.9499C24.17 21.2299 25.3 20.0499 27.59 20.0499C28.0514 20.0374 28.5123 20.0879 28.96 20.1999H31.87V21.4699L30.5 21.5799M34.5 18.8299C34.3194 18.8487 34.1369 18.827 33.9657 18.7663C33.7946 18.7057 33.6392 18.6075 33.5108 18.4791C33.3824 18.3508 33.2842 18.1953 33.2236 18.0242C33.1629 17.853 33.1412 17.6705 33.16 17.4899C33.16 17.1319 33.3022 16.7885 33.5554 16.5353C33.8086 16.2821 34.152 16.1399 34.51 16.1399C34.8681 16.1399 35.2114 16.2821 35.4646 16.5353C35.7178 16.7885 35.86 17.1319 35.86 17.4899C35.8775 17.6719 35.8541 17.8556 35.7917 18.0275C35.7292 18.1994 35.6292 18.3552 35.4989 18.4836C35.3686 18.6119 35.2114 18.7096 35.0386 18.7695C34.8658 18.8294 34.6818 18.8501 34.5 18.8299ZM32.57 27.8299V26.6299L33.34 26.5199C33.55 26.5199 33.58 26.4499 33.58 26.2299V21.8299C33.5899 21.7628 33.5751 21.6943 33.5383 21.6373C33.5015 21.5803 33.4453 21.5386 33.38 21.5199L32.57 21.2399L32.74 19.9999H35.83V26.1999C35.83 26.4299 35.83 26.4599 36.07 26.4899L36.83 26.5999V27.7799H32.57M42.74 27.2299C41.9781 27.5999 41.1466 27.8043 40.3 27.8299C38.53 27.8299 37.85 27.1099 37.85 25.4199V21.5099C37.85 21.4199 37.85 21.3599 37.73 21.3599H36.73V19.9999C38.04 19.8499 38.57 19.1899 38.73 17.5699H40.15V19.6899C40.15 19.7899 40.15 19.8399 40.27 19.8399H42.37V21.3299H40.11V24.8999C40.11 25.7799 40.32 26.1199 41.11 26.1199C41.5246 26.1146 41.9348 26.0332 42.32 25.8799L42.73 27.1999M20.61 23.3099L13.78 16.4799C13.6869 16.3846 13.5757 16.309 13.4529 16.2573C13.3301 16.2056 13.1982 16.179 13.065 16.179C12.9318 16.179 12.7999 16.2056 12.6772 16.2573C12.5544 16.309 12.4432 16.3846 12.35 16.4799L10.94 17.8999L12.74 19.6999C12.9569 19.6254 13.1905 19.614 13.4135 19.6671C13.6366 19.7202 13.84 19.8356 14 19.9999C14.1562 20.1609 14.2649 20.3618 14.3143 20.5805C14.3637 20.7993 14.3518 21.0274 14.28 21.2399L16 22.9999C16.2598 22.9029 16.5452 22.8989 16.8077 22.9886C17.0701 23.0783 17.2934 23.2561 17.4395 23.4918C17.5856 23.7275 17.6456 24.0066 17.6093 24.2815C17.5729 24.5564 17.4424 24.8103 17.24 24.9999C17.014 25.2204 16.7108 25.3438 16.395 25.3438C16.0793 25.3438 15.776 25.2204 15.55 24.9999C15.3806 24.8326 15.2653 24.6183 15.2189 24.3848C15.1726 24.1513 15.1973 23.9092 15.29 23.6899L13.65 21.9999V26.2499C13.7673 26.3106 13.8751 26.3881 13.97 26.4799C14.1762 26.7088 14.2865 27.0082 14.278 27.3161C14.2695 27.624 14.1429 27.9169 13.9245 28.1341C13.706 28.3513 13.4124 28.4761 13.1044 28.4828C12.7964 28.4895 12.4977 28.3774 12.27 28.1699C12.1585 28.0593 12.0699 27.9276 12.0095 27.7826C11.949 27.6376 11.9179 27.482 11.9179 27.3249C11.9179 27.1678 11.949 27.0122 12.0095 26.8672C12.0699 26.7222 12.1585 26.5905 12.27 26.4799C12.3792 26.3655 12.5124 26.2767 12.66 26.2199V21.9199C12.3685 21.8 12.1358 21.5702 12.0123 21.2802C11.8888 20.9901 11.8844 20.6632 12 20.3699L10.24 18.5999L5.56002 23.2799C5.46629 23.3729 5.3919 23.4835 5.34113 23.6053C5.29036 23.7272 5.26422 23.8579 5.26422 23.9899C5.26422 24.1219 5.29036 24.2526 5.34113 24.3745C5.3919 24.4963 5.46629 24.6069 5.56002 24.6999L12.39 31.5299C12.483 31.6236 12.5936 31.698 12.7154 31.7488C12.8373 31.7996 12.968 31.8257 13.1 31.8257C13.232 31.8257 13.3627 31.7996 13.4846 31.7488C13.6065 31.698 13.7171 31.6236 13.81 31.5299L20.61 24.7399C20.7053 24.6468 20.7809 24.5355 20.8326 24.4128C20.8843 24.29 20.9109 24.1581 20.9109 24.0249C20.9109 23.8917 20.8843 23.7598 20.8326 23.637C20.7809 23.5142 20.7053 23.403 20.61 23.3099Z" fill="white"/>
</svg>
