<svg width="24" height="24" viewBox="0 0 24 24" fill="none" xmlns="http://www.w3.org/2000/svg">
<g clip-path="url(#clip0_57_31)">
<path d="M10.0703 20.5029C10.0703 20.3563 10.038 20.2114 9.97578 20.0786C9.91353 19.9458 9.82284 19.8283 9.71014 19.7345C9.59743 19.6407 9.46546 19.5728 9.32359 19.5356C9.18171 19.4985 9.03341 19.493 8.88917 19.5195C7.58009 19.7598 5.92726 19.7959 5.4878 18.5615C5.10461 17.6055 4.46987 16.771 3.65089 16.1465C3.59246 16.1147 3.53677 16.0781 3.48439 16.0371C3.41272 15.8481 3.2854 15.6852 3.11925 15.5699C2.95311 15.4547 2.75592 15.3925 2.55372 15.3916H2.54884C2.28444 15.3915 2.03077 15.4962 1.84335 15.6827C1.65594 15.8692 1.55004 16.1224 1.54884 16.3867C1.54493 17.2022 2.35984 17.7246 2.69044 17.9014C3.08029 18.2931 3.39359 18.7541 3.61427 19.2608C3.97853 20.2842 5.03712 21.8369 8.08009 21.6368C8.08109 21.6719 8.08204 21.7051 8.08253 21.7354L8.08692 22.003C8.08692 22.2682 8.19228 22.5226 8.37982 22.7101C8.56735 22.8976 8.82171 23.003 9.08692 23.003C9.35214 23.003 9.60649 22.8976 9.79403 22.7101C9.98157 22.5226 10.0869 22.2682 10.0869 22.003L10.082 21.6846C10.0772 21.4951 10.0703 21.2207 10.0703 20.5029ZM20.7373 5.37692C20.7691 5.25192 20.8003 5.11325 20.8277 4.957C20.9894 3.84259 20.8484 2.70519 20.4195 1.664C20.3653 1.52826 20.2822 1.40601 20.1758 1.3058C20.0694 1.2056 19.9425 1.12987 19.8037 1.08393C19.4477 0.963809 18.1333 0.727479 15.6197 2.33393C13.5302 1.84222 11.3551 1.84222 9.26565 2.33393C6.76222 0.751009 5.4546 0.965809 5.10206 1.07909C4.95993 1.12317 4.82946 1.1985 4.72021 1.29955C4.61097 1.4006 4.52572 1.52481 4.47071 1.66309C4.03301 2.72427 3.89355 3.88486 4.06739 5.01953C4.09181 5.14746 4.11817 5.26563 4.14552 5.37402C3.31709 6.47746 2.87583 7.82338 2.89015 9.20312C2.88745 9.51095 2.90163 9.81871 2.93263 10.125C3.26663 14.7275 6.26663 16.1094 8.35694 16.584C8.31349 16.709 8.27394 16.8428 8.23878 16.9844C8.17612 17.2417 8.21805 17.5133 8.35538 17.7397C8.49271 17.9662 8.71422 18.1289 8.97135 18.1922C9.22848 18.2556 9.50024 18.2144 9.72703 18.0777C9.95382 17.9409 10.1171 17.7198 10.1812 17.4629C10.2448 17.1297 10.4079 16.8236 10.6489 16.585C10.7947 16.4574 10.9002 16.2901 10.9527 16.1037C11.0052 15.9172 11.0023 15.7195 10.9445 15.5346C10.8866 15.3497 10.7763 15.1856 10.6269 15.0622C10.4775 14.9389 10.2955 14.8616 10.103 14.8398C6.64894 14.4453 5.14942 13.0381 4.92384 9.94141C4.89885 9.69614 4.88761 9.44966 4.89015 9.20313C4.87411 8.21978 5.19898 7.26121 5.80958 6.49024C5.87093 6.40986 5.93628 6.33261 6.00538 6.25879C6.12781 6.12179 6.21013 5.95371 6.2433 5.77299C6.27646 5.59228 6.25919 5.40592 6.19338 5.23438C6.12592 5.05391 6.07397 4.86801 6.03811 4.67871C5.95664 4.14043 5.98337 3.5913 6.11671 3.06347C6.98585 3.30894 7.80383 3.70851 8.53171 4.24315C8.65208 4.32332 8.78828 4.37668 8.93108 4.39959C9.07388 4.42251 9.21994 4.41445 9.35935 4.37597C11.3805 3.82747 13.5113 3.82781 15.5322 4.37697C15.6724 4.41541 15.8192 4.42301 15.9626 4.39924C16.106 4.37547 16.2425 4.32089 16.3628 4.23928C17.0872 3.70242 17.9018 3.29928 18.768 3.04885C18.9008 3.564 18.9305 4.10031 18.8554 4.62697C18.8192 4.83451 18.7626 5.03797 18.6865 5.2344C18.6207 5.40594 18.6034 5.5923 18.6366 5.77301C18.6697 5.95373 18.7521 6.12181 18.8745 6.25881C18.9516 6.34572 19.0288 6.43947 19.0981 6.52736C19.7044 7.28528 20.0238 8.23283 20 9.20312C20.0018 9.46273 19.9893 9.72224 19.9624 9.98046C19.7422 13.0361 18.2368 14.4443 14.7666 14.8398C14.5741 14.8618 14.392 14.9392 14.2427 15.0626C14.0933 15.1861 13.983 15.3503 13.9253 15.5353C13.8675 15.7202 13.8647 15.918 13.9172 16.1045C13.9698 16.2911 14.0754 16.4583 14.2212 16.5859C14.4698 16.831 14.6333 17.1493 14.6875 17.4941C14.7551 17.7618 14.7861 18.0374 14.7798 18.3135V20.6475C14.77 21.2949 14.77 21.7803 14.77 22.0029C14.77 22.2681 14.8754 22.5225 15.0629 22.71C15.2504 22.8976 15.5048 23.0029 15.77 23.0029C16.0352 23.0029 16.2896 22.8976 16.4771 22.71C16.6647 22.5225 16.77 22.2681 16.77 22.0029C16.77 21.7861 16.77 21.3105 16.7798 20.6631V18.3135C16.7878 17.8713 16.7358 17.4301 16.625 17.0019C16.5933 16.8614 16.5545 16.7226 16.5088 16.5859C18.03 16.3332 19.4123 15.5489 20.4094 14.3726C21.4065 13.1962 21.9539 11.7042 21.9541 10.1621C21.987 9.84354 22.0024 9.52338 22 9.20312C22.0222 7.82189 21.5773 6.47363 20.7373 5.37692Z" fill="#00FFC2"/>
</g>
<defs>
<clipPath id="clip0_57_31">
<rect width="24" height="24" fill="white"/>
</clipPath>
</defs>
</svg>
