<svg width="25" height="26" viewBox="0 0 25 26" fill="none" xmlns="http://www.w3.org/2000/svg">
<path d="M17.7677 16.6738C16.5786 17.8887 15.0671 19.3356 13.2315 21.0154C13.231 21.0158 13.2306 21.0162 13.2302 21.0166L12.5 21.6755L11.7698 21.0166C11.7694 21.0163 11.769 21.0159 11.7686 21.0155C9.93289 19.3356 8.42139 17.8887 7.23233 16.6738C6.04432 15.4599 5.10623 14.3842 4.41257 13.4452C3.71775 12.5046 3.24709 11.6747 2.98245 10.953C2.71535 10.2245 2.58333 9.49273 2.58333 8.75529C2.58333 7.31774 3.0611 6.14087 4.0124 5.18957C4.96486 4.23712 6.1336 3.7605 7.55208 3.7605C8.45893 3.7605 9.29069 3.97429 10.0563 4.40049C10.825 4.82844 11.5043 5.45139 12.0915 6.28321L12.4805 6.83432L12.8947 6.30184C13.5928 5.40419 14.3153 4.76602 15.0561 4.36404C15.7982 3.96146 16.5928 3.7605 17.4479 3.7605C18.8664 3.7605 20.0351 4.23712 20.9876 5.18957C21.9389 6.14087 22.4167 7.31774 22.4167 8.75529C22.4167 9.49273 22.2846 10.2245 22.0175 10.953C21.7529 11.6747 21.2822 12.5046 20.5874 13.4452C19.8938 14.3842 18.9557 15.4599 17.7677 16.6738Z" fill="#FF002E" stroke="black"/>
</svg>
