<svg width="48" height="48" viewBox="0 0 48 48" fill="none" xmlns="http://www.w3.org/2000/svg">
<path d="M38.43 20.0001L33.73 22.8701V16.8701L31.07 18.5801V27.0001L28.86 28.4101L26.43 27.0001V24.3801L31.07 21.4801L28.89 20.1201L24.08 22.9401L19.25 19.9401L14.38 22.8701L9.6 20.0001L4.77 22.7801V28.3101L7.14 29.8001V24.3301L9.6 22.8601L11.89 24.3001V29.8501L14.4 28.3601L19.21 31.1601L24 28.3601L28.89 31.1601L33.76 28.3601L38.34 31.1601V28.1601L36.1 27.0001V24.2401L38.45 22.8801L40.77 24.2901V26.8401L43.2 25.4301V22.8301L38.43 20.0001ZM21.62 27.0001L19.22 28.3801L16.82 27.0001V24.2501L19.22 22.8701L21.62 24.2501V27.0001Z" fill="white"/>
<path d="M37.13 24.76V26.28L38.45 27.04L39.76 26.28V24.76L38.45 24L37.13 24.76Z" fill="white"/>
</svg>
