<svg width="48" height="48" viewBox="0 0 48 48" fill="none" xmlns="http://www.w3.org/2000/svg">
<path d="M20.08 23.41H27.62C28.7694 23.3941 29.8782 22.9827 30.7597 22.245C31.6413 21.5074 32.2417 20.4885 32.46 19.36V10.2C32.46 10.2 30.65 6.19995 23.35 6.19995C16.05 6.19995 14.81 9.54995 14.81 9.54995V14.26H23.64V16H11.88C11.0603 15.9947 10.2477 16.1517 9.48895 16.4621C8.73024 16.7724 8.04048 17.2299 7.45945 17.8081C6.87842 18.3864 6.41762 19.0739 6.10363 19.8311C5.78965 20.5883 5.62868 21.4002 5.63001 22.22V27.38C5.6287 28.0965 5.7687 28.8063 6.042 29.4686C6.3153 30.131 6.71653 30.733 7.22274 31.2402C7.72895 31.7473 8.3302 32.1496 8.99208 32.4241C9.65395 32.6987 10.3635 32.84 11.08 32.84H14V29.4799C13.9987 28.6816 14.1551 27.8909 14.4603 27.1532C14.7655 26.4155 15.2135 25.7454 15.7785 25.1813C16.3434 24.6173 17.0143 24.1704 17.7525 23.8664C18.4907 23.5624 19.2817 23.4073 20.08 23.41ZM18.72 12C18.4214 12 18.1294 11.9114 17.8811 11.7455C17.6328 11.5795 17.4392 11.3437 17.325 11.0678C17.2107 10.7919 17.1808 10.4883 17.239 10.1954C17.2973 9.90245 17.4411 9.6334 17.6523 9.42222C17.8635 9.21104 18.1325 9.06723 18.4254 9.00897C18.7183 8.9507 19.0219 8.98061 19.2979 9.09489C19.5738 9.20918 19.8096 9.40272 19.9755 9.65104C20.1415 9.89936 20.23 10.1913 20.23 10.49C20.2274 10.8896 20.0675 11.2722 19.7849 11.5548C19.5022 11.8374 19.1197 11.9973 18.72 12Z" fill="white"/>
<path d="M36.92 15.1699H34V18.5199C34.0013 19.3166 33.8455 20.1057 33.5416 20.8421C33.2376 21.5784 32.7914 22.2477 32.2286 22.8115C31.6657 23.3752 30.9972 23.8225 30.2614 24.1277C29.5255 24.4328 28.7366 24.5899 27.94 24.5899H20.38C19.2306 24.6058 18.1218 25.0172 17.2403 25.7548C16.3587 26.4925 15.7583 27.5114 15.54 28.6399V37.7999C15.54 37.7999 17.35 41.7999 24.65 41.7999C31.95 41.7999 33.19 38.4499 33.19 38.4499V33.7699H24.36V31.9999H36.12C36.9397 32.0052 37.7523 31.8481 38.511 31.5378C39.2698 31.2275 39.9595 30.77 40.5405 30.1917C41.1216 29.6135 41.5824 28.9259 41.8964 28.1687C42.2103 27.4115 42.3713 26.5996 42.37 25.7799V20.6299C42.3713 19.9134 42.2313 19.2036 41.958 18.5412C41.6847 17.8788 41.2835 17.2769 40.7772 16.7697C40.271 16.2626 39.6698 15.8602 39.0079 15.5857C38.346 15.3112 37.6365 15.1699 36.92 15.1699ZM29.28 35.9999C29.5786 35.9999 29.8706 36.0885 30.1189 36.2544C30.3672 36.4203 30.5607 36.6562 30.675 36.9321C30.7893 37.208 30.8192 37.5116 30.761 37.8045C30.7027 38.0974 30.5589 38.3665 30.3477 38.5777C30.1365 38.7888 29.8675 38.9326 29.5746 38.9909C29.2817 39.0492 28.978 39.0193 28.7021 38.905C28.4262 38.7907 28.1904 38.5972 28.0245 38.3488C27.8585 38.1005 27.77 37.8086 27.77 37.5099C27.7726 37.1103 27.9325 36.7277 28.2151 36.4451C28.4978 36.1625 28.8803 36.0025 29.28 35.9999Z" fill="white"/>
</svg>
