<svg width="48" height="48" viewBox="0 0 48 48" fill="none" xmlns="http://www.w3.org/2000/svg">
<g clip-path="url(#clip0_64_326)">
<path d="M47.5472 23.4113L45.5592 22.1797C45.5425 21.9858 45.5235 21.7925 45.5026 21.6L47.2143 20.0061C47.3882 19.844 47.4661 19.604 47.419 19.3721C47.3733 19.1389 47.2098 18.9469 46.9875 18.8649L44.8003 18.0498C44.7455 17.8606 44.688 17.6726 44.6291 17.4838L45.9921 15.591C46.1312 15.3985 46.1597 15.1481 46.0691 14.9298C45.9786 14.7111 45.7807 14.5544 45.5484 14.516L43.2435 14.141C43.1538 13.9662 43.0605 13.7941 42.9663 13.6248L43.9354 11.4965C44.0346 11.28 44.0142 11.0301 43.882 10.8308C43.7502 10.6334 43.5269 10.5179 43.2887 10.527L40.9476 10.6085C40.8267 10.4572 40.7035 10.3073 40.5781 10.1602L41.117 7.88244C41.1713 7.65105 41.1029 7.40697 40.9345 7.23942C40.7674 7.07188 40.5247 7.00259 40.2915 7.05693L38.0137 7.5958C37.8661 7.47082 37.7162 7.3472 37.5645 7.22629L37.6465 4.88516C37.6555 4.64833 37.5401 4.42327 37.3426 4.29195C37.1447 4.15973 36.8943 4.1398 36.677 4.23806L34.5532 5.20712C34.3816 5.11293 34.2095 5.01965 34.037 4.92954L33.6611 2.62463C33.6231 2.39097 33.4664 2.19263 33.2472 2.10388C33.0285 2.01286 32.7763 2.04229 32.5861 2.18086L30.6933 3.54388C30.5067 3.48456 30.3192 3.4275 30.1318 3.37316L29.3167 1.18599C29.2338 0.963196 29.0418 0.799725 28.8095 0.753536C28.5767 0.7078 28.3386 0.785234 28.1755 0.958215L26.5816 2.66991C26.3891 2.64863 26.1953 2.62916 26.002 2.61331L24.7703 0.620857C24.6457 0.419348 24.4252 0.296631 24.1861 0.296631C23.947 0.296631 23.7287 0.419348 23.6065 0.620857L22.3748 2.61331C22.181 2.62916 21.9872 2.64863 21.7952 2.66991L20.2012 0.958215C20.0395 0.785234 19.7995 0.7078 19.5672 0.753536C19.334 0.800178 19.142 0.963196 19.0601 1.18599L18.245 3.37316C18.0557 3.4275 17.8682 3.48501 17.6835 3.54388L15.7906 2.18086C15.5982 2.04184 15.3473 2.0124 15.1295 2.10388C14.9108 2.19444 14.7537 2.39278 14.7156 2.62463L14.3398 4.92954C14.1659 5.01965 13.9938 5.11248 13.8235 5.20712L11.6998 4.23806C11.4838 4.13935 11.2333 4.15973 11.0341 4.29195C10.8367 4.42327 10.7212 4.64833 10.7303 4.88516L10.8118 7.22629C10.6605 7.3472 10.5106 7.47082 10.3626 7.5958L8.08482 7.05693C7.85342 7.00305 7.60935 7.07188 7.4418 7.23942C7.27335 7.40742 7.20497 7.64969 7.25931 7.88244L7.79365 10.1602C7.66912 10.3078 7.54595 10.4572 7.42505 10.6085L5.08391 10.527C4.84799 10.5202 4.62203 10.6334 4.49071 10.8308C4.35848 11.0273 4.33856 11.2791 4.43682 11.4965L5.40588 13.6248C5.31169 13.7955 5.2184 13.9676 5.12829 14.141L2.82339 14.516C2.58927 14.554 2.39184 14.7107 2.30263 14.9298C2.21206 15.1495 2.2415 15.4008 2.37961 15.591L3.74263 17.4838C3.68331 17.6708 3.6258 17.8587 3.57146 18.0498L1.38429 18.8649C1.1624 18.9478 0.998933 19.1398 0.952744 19.3721C0.906555 19.6049 0.983989 19.843 1.15742 20.0061L2.86912 21.6C2.84784 21.7925 2.82882 21.9863 2.81252 22.1797L0.824592 23.4113C0.623083 23.5359 0.500366 23.756 0.500366 23.9955C0.500366 24.235 0.623083 24.4529 0.824592 24.5751L2.81252 25.8068C2.82882 26.0006 2.84784 26.194 2.86912 26.3864L1.15742 27.9804C0.983989 28.1421 0.906555 28.3821 0.952744 28.6144C0.998933 28.8476 1.1624 29.0391 1.38429 29.1215L3.57146 29.9366C3.6258 30.1259 3.68331 30.3138 3.74263 30.5027L2.37961 32.3955C2.24105 32.5884 2.21161 32.8388 2.30263 33.0566C2.39365 33.2763 2.59154 33.4329 2.82791 33.4705L5.13282 33.8455C5.22293 34.0203 5.31531 34.1923 5.4104 34.3617L4.44135 36.4855C4.34263 36.7015 4.36301 36.9519 4.49523 37.1511C4.62746 37.349 4.85252 37.4645 5.08844 37.455L7.42505 37.373C7.54686 37.5252 7.66958 37.6741 7.79456 37.8222L7.26022 40.1C7.20588 40.3309 7.27425 40.5709 7.44271 40.7384C7.6098 40.9073 7.85297 40.9748 8.08572 40.9205L10.3635 40.3861C10.5115 40.512 10.6614 40.6343 10.8127 40.7547L10.7312 43.0959C10.7221 43.3327 10.8376 43.5578 11.035 43.6891C11.2315 43.8209 11.4833 43.8408 11.7007 43.7421L13.8244 42.773C13.9956 42.8681 14.1677 42.9605 14.3407 43.0506L14.7165 45.3555C14.7546 45.5901 14.9112 45.7884 15.1304 45.8808C15.3491 45.9718 15.6013 45.9424 15.7915 45.8043L17.6844 44.4412C17.8714 44.5006 18.0593 44.5585 18.2504 44.6129L19.0655 46.8C19.1484 47.0219 19.3404 47.1863 19.5727 47.2316C19.8054 47.2787 20.0436 47.2008 20.2066 47.0269L21.8006 45.3152C21.993 45.3374 22.1869 45.356 22.3802 45.3732L23.6119 47.3611C23.736 47.5617 23.9565 47.6853 24.1915 47.6853C24.4266 47.6853 24.6489 47.5621 24.7757 47.3611L26.0074 45.3732C26.2012 45.356 26.3946 45.3374 26.587 45.3152L28.181 47.0269C28.3426 47.2008 28.5826 47.2787 28.8149 47.2316C29.0481 47.1858 29.2401 47.0219 29.3221 46.8L30.1372 44.6129C30.3265 44.5585 30.5144 44.5006 30.7032 44.4412L32.5961 45.8043C32.7885 45.9424 33.0394 45.9718 33.2572 45.8808C33.4764 45.7907 33.633 45.5919 33.6711 45.3555L34.0469 43.0506C34.2208 42.9605 34.3929 42.8667 34.5632 42.773L36.6869 43.7421C36.9029 43.8408 37.1534 43.8209 37.3526 43.6891C37.55 43.5569 37.665 43.3327 37.6564 43.0959L37.5749 40.7547C37.7262 40.6338 37.8761 40.512 38.0237 40.3861L40.3014 40.9205C40.5328 40.9748 40.7769 40.9073 40.9444 40.7384C41.1129 40.5704 41.1813 40.3291 41.1269 40.1L40.5926 37.8222C40.7176 37.6741 40.8407 37.5252 40.9612 37.373L43.3023 37.455C43.5383 37.4645 43.7642 37.349 43.8955 37.1511C44.0278 36.9537 44.0481 36.7024 43.949 36.4855L42.9799 34.3617C43.0746 34.1901 43.1674 34.018 43.257 33.8455L45.562 33.4705C45.7965 33.4329 45.994 33.2763 46.0827 33.0566C46.1733 32.8379 46.1447 32.5857 46.0057 32.3955L44.6427 30.5027C44.7016 30.3157 44.7591 30.1277 44.8139 29.9366L47.001 29.1215C47.2234 29.0382 47.3873 28.8467 47.4326 28.6144C47.4797 28.3816 47.4018 28.1434 47.2279 27.9804L45.5162 26.3864C45.5371 26.194 45.5561 26.0002 45.5728 25.8068L47.5607 24.5751C47.7623 24.451 47.885 24.2305 47.885 23.9955C47.885 23.7605 47.7627 23.5381 47.5612 23.4113H47.5472ZM34.234 39.9396C33.4732 39.7757 32.9932 39.0249 33.1562 38.2642C33.3188 37.5034 34.0664 37.0189 34.8272 37.1819C35.5879 37.3445 36.0724 38.0966 35.9094 38.8574C35.7464 39.6181 34.9992 40.1027 34.2385 39.9396H34.234ZM33.5592 35.3661C32.8664 35.2175 32.1826 35.6586 32.0377 36.3532L31.3313 39.6498C29.1532 40.637 26.7124 41.1895 24.1766 41.1895C21.5683 41.1895 19.1049 40.6144 16.886 39.5819L16.1796 36.2853C16.0311 35.5925 15.3509 35.1487 14.6581 35.2981L11.7464 35.923C11.2075 35.3661 10.7049 34.7729 10.243 34.148H24.4166C24.5769 34.148 24.6838 34.119 24.6838 33.9732V28.9467C24.6838 28.8009 24.5769 28.772 24.4166 28.772H20.2732V25.5976H24.7517C25.1606 25.5976 26.9389 25.7144 27.5049 27.9886C27.6829 28.6859 28.0755 30.9591 28.3426 31.6882C28.6089 32.5033 29.6921 34.1335 30.8468 34.1335H37.9109C37.9911 34.1335 38.0767 34.1244 38.1668 34.1081C37.6777 34.7738 37.1389 35.4032 36.5638 35.9919L33.5841 35.3534L33.5592 35.3661ZM13.9517 39.8717C13.1909 40.0357 12.4438 39.5511 12.2807 38.7895C12.1182 38.0287 12.6013 37.277 13.363 37.114C14.1238 36.9514 14.8709 37.436 15.034 38.1963C15.1965 38.957 14.7129 39.7087 13.9517 39.8717ZM8.56301 18.0906C8.87818 18.8015 8.55758 19.6347 7.84754 19.9517C7.13659 20.2673 6.30791 19.9463 5.99093 19.2363C5.67395 18.5262 5.99637 17.6921 6.70641 17.3751C7.41735 17.0599 8.24603 17.3806 8.56301 18.0906ZM6.91018 22.003L9.94414 20.6536C10.5917 20.3661 10.886 19.6076 10.5962 18.96L9.97131 17.5472H12.4256V28.5963H7.4898C7.06007 27.0838 6.82867 25.4898 6.82867 23.8415C6.82867 23.2121 6.86263 22.5917 6.92784 21.9804L6.91018 22.003ZM20.2234 20.9298V17.6695H26.0649C26.3669 17.6695 28.1977 18.0186 28.1977 19.3857C28.1977 20.5223 26.794 20.9298 25.6392 20.9298H20.2053H20.2234ZM41.4611 23.8642C41.4611 24.2971 41.4453 24.7246 41.4136 25.1502H39.634C39.456 25.1502 39.3844 25.267 39.3844 25.4414V26.2565C39.3844 28.1765 38.3022 28.5976 37.3512 28.7018C36.4456 28.8037 35.4448 28.3232 35.3226 27.7689C34.7882 24.7667 33.9007 24.1282 32.4969 23.0142C34.2403 21.9093 36.0516 20.2746 36.0516 18.0784C36.0516 15.7191 34.435 14.2338 33.3346 13.5048C31.786 12.4859 30.0743 12.2821 29.6124 12.2821H11.2275C13.7226 9.50176 17.1143 7.52742 20.918 6.80289L23.0871 9.0761C23.5761 9.5878 24.3867 9.61044 24.9029 9.11776L27.3301 6.79927C32.4018 7.74569 36.7037 10.9064 39.1943 15.2672L37.5324 19.0166C37.2457 19.6642 37.5383 20.4249 38.1844 20.7102L41.3814 22.1321C41.4367 22.6981 41.4657 23.2732 41.4657 23.8529L41.4611 23.8642ZM23.0762 4.89059C23.6377 4.35172 24.5298 4.37437 25.0641 4.93633C25.5985 5.49784 25.5804 6.38991 25.0175 6.92878C24.456 7.46765 23.5639 7.44501 23.0296 6.88259C22.4952 6.32108 22.5133 5.42946 23.0762 4.89059ZM39.5592 18.1585C39.874 17.4476 40.7049 17.1261 41.4158 17.443C42.1268 17.7582 42.4483 18.5932 42.1313 19.3042C41.8166 20.0151 40.9857 20.3366 40.2747 20.0196C39.5638 19.7045 39.2423 18.8695 39.5592 18.1585Z" fill="white"/>
</g>
<defs>
<clipPath id="clip0_64_326">
<rect width="48" height="48" fill="white"/>
</clipPath>
</defs>
</svg>
