<svg width="100" height="100" viewBox="0 0 100 100" fill="none" xmlns="http://www.w3.org/2000/svg">
<path d="M20.8438 56.261L20.8437 56.261L20.8456 56.2621L48.201 71.8968C48.2011 71.8968 48.2011 71.8968 48.2011 71.8969C48.7489 72.21 49.369 72.3748 50 72.3749H50.0001C50.631 72.3748 51.2511 72.21 51.7989 71.8969C51.7989 71.8968 51.7989 71.8968 51.799 71.8968L79.1544 56.2621L79.1562 56.261C79.3179 56.1677 79.5013 56.1186 79.6879 56.1187C79.8745 56.1187 80.0579 56.168 80.2194 56.2614C80.381 56.3548 80.5151 56.4892 80.6082 56.6509C80.7014 56.8127 80.7503 56.9961 80.75 57.1827V57.1835V71.8749V71.8753C80.7504 72.3438 80.6254 72.8039 80.388 73.2078C80.1505 73.6117 79.8093 73.9446 79.3998 74.1722L79.6426 74.6092L79.3998 74.1722L51.2748 89.7972C50.8848 90.0138 50.4461 90.1275 50 90.1275C49.5539 90.1275 49.1152 90.0138 48.7252 89.7972L20.6002 74.1722L20.3574 74.6092L20.6002 74.1722C20.1907 73.9446 19.8495 73.6117 19.6121 73.2078C19.3746 72.8039 19.2496 72.3438 19.25 71.8753V71.8749L19.25 57.1835L19.25 57.1827C19.2497 56.9961 19.2986 56.8127 19.3918 56.6509C19.4849 56.4892 19.619 56.3548 19.7806 56.2614C19.9421 56.168 20.1255 56.1187 20.3121 56.1187C20.4987 56.1186 20.6821 56.1677 20.8438 56.261Z" stroke="#00FFC2"/>
<path d="M91.125 43.5604C91.1256 43.4038 91.0849 43.2498 91.007 43.1139C90.9291 42.978 90.8167 42.865 90.6812 42.7865C90.5457 42.7079 90.3919 42.6664 90.2353 42.6662C90.0787 42.6661 89.9249 42.7072 89.7893 42.7855C89.7892 42.7855 89.7891 42.7855 89.7891 42.7856L51.2988 64.7786L51.2988 64.7786C50.9021 65.0054 50.453 65.1247 49.9961 65.1247C49.5392 65.1247 49.0901 65.0054 48.6934 64.7786L48.6934 64.7786L4.94349 39.7787C4.94346 39.7786 4.94342 39.7786 4.94339 39.7786C4.54179 39.549 4.20801 39.2173 3.97585 38.8171C3.74368 38.4169 3.6214 37.9625 3.6214 37.4998C3.6214 37.0372 3.74368 36.5827 3.97585 36.1825C4.20801 35.7824 4.54179 35.4507 4.94339 35.2211C4.94342 35.221 4.94346 35.221 4.94349 35.221L48.6934 10.2211L48.6934 10.221C49.0901 9.99427 49.5392 9.875 49.9961 9.875C50.453 9.875 50.9021 9.99428 51.2988 10.221L51.2988 10.2211L95.0488 35.2211L95.0495 35.2214C95.4129 35.4284 95.7216 35.7192 95.95 36.0697C96.1738 36.4133 96.314 36.8046 96.3594 37.2119L90.625 43.5584M91.125 43.5604L90.625 43.5584M91.125 43.5604V43.5584H90.625M91.125 43.5604V71.7869C91.125 73.2187 92.2251 74.4262 93.6237 74.4965M90.625 43.5584V71.7869C90.625 73.4686 91.918 74.9119 93.5996 74.9959M93.6237 74.4965L93.5996 74.9959M93.6237 74.4965C93.9786 74.5136 94.3333 74.4585 94.6663 74.3344C94.9993 74.2104 95.3036 74.0201 95.5609 73.7749C95.8181 73.5298 96.0229 73.235 96.1629 72.9084C96.3028 72.5818 96.375 72.2301 96.375 71.8748V37.501M93.6237 74.4965C93.624 74.4965 93.6243 74.4965 93.6246 74.4966L93.5996 74.9959M93.5996 74.9959L96.375 37.501M96.375 37.501V37.4998H96.875L96.375 37.501Z" stroke="#00FFC2"/>
</svg>
