<svg width="48" height="48" viewBox="0 0 48 48" fill="none" xmlns="http://www.w3.org/2000/svg">
<path d="M41.405 6.34396C36.9527 -0.0283481 28.1595 -1.91702 21.8018 2.13352L10.6359 9.2503C9.12748 10.1993 7.83367 11.4525 6.83717 12.9299C5.84066 14.4073 5.16337 16.0764 4.8486 17.8305C4.31593 20.7851 4.78407 23.833 6.17889 26.4917C5.2231 27.9415 4.57122 29.5701 4.26263 31.279C3.94456 33.0684 3.98699 34.9033 4.38745 36.6761C4.78791 38.4489 5.53832 40.1238 6.59468 41.6028C11.0478 47.9757 19.841 49.8636 26.1978 45.8131L37.3638 38.6966C38.8723 37.7477 40.1662 36.4945 41.1627 35.017C42.1592 33.5396 42.8364 31.8704 43.151 30.1163C43.6836 27.1617 43.2158 24.1138 41.8217 21.4549C42.7772 20.0051 43.4288 18.3765 43.737 16.6677C44.0553 14.8783 44.013 13.0434 43.6126 11.2706C43.2121 9.49778 42.4615 7.82281 41.405 6.34396Z" fill="white"/>
<path d="M20.71 42.209C17.1097 43.1452 13.3078 41.7359 11.1874 38.6795C10.5518 37.7898 10.1003 36.7823 9.85941 35.7158C9.61847 34.6494 9.59296 33.5455 9.78435 32.4691C9.84917 32.1156 9.93837 31.7671 10.0513 31.426L10.2617 30.7847L10.8338 31.205C12.1554 32.176 13.633 32.9143 15.2031 33.3879L15.6181 33.5139L15.5799 33.9282C15.5291 34.5176 15.6887 35.1059 16.0303 35.5889C16.3418 36.0384 16.7838 36.3815 17.2965 36.5718C17.8092 36.7621 18.368 36.7904 18.8973 36.653C19.1401 36.5881 19.3715 36.4864 19.5835 36.3515L30.7529 29.2337C31.0262 29.0617 31.2606 28.8345 31.4413 28.5668C31.622 28.2991 31.745 27.9967 31.8023 27.6789C31.8596 27.3544 31.8518 27.0218 31.7792 26.7004C31.7066 26.3791 31.5707 26.0754 31.3795 25.807C31.0678 25.3575 30.6257 25.0143 30.1128 24.8239C29.5999 24.6335 29.0409 24.605 28.5114 24.7423C28.269 24.8072 28.0379 24.9088 27.8263 25.0436L23.5639 27.7606C22.8631 28.2062 22.0983 28.542 21.2959 28.7566C17.6958 29.6927 13.8938 28.2834 11.7737 25.2268C11.1381 24.3373 10.6866 23.3297 10.4456 22.2633C10.2046 21.1969 10.1791 20.093 10.3705 19.0166C10.5598 17.9615 10.9672 16.9576 11.5667 16.0689C12.1662 15.1803 12.9446 14.4266 13.852 13.856L25.0205 6.73749C25.7216 6.29118 26.487 5.95491 27.29 5.7404C30.8902 4.80424 34.6921 6.21354 36.8123 9.26996C37.4479 10.1596 37.8994 11.1671 38.1403 12.2336C38.3813 13.3001 38.4068 14.4039 38.2155 15.4803C38.1504 15.8337 38.0612 16.1821 37.9485 16.5233L37.7381 17.1647L37.1662 16.745C35.8447 15.7735 34.367 15.0349 32.7968 14.5612L32.3816 14.4351L32.4199 14.0209C32.4703 13.4315 32.3107 12.8434 31.9695 12.3602C31.658 11.9107 31.216 11.5676 30.7033 11.3773C30.1905 11.187 29.6317 11.1586 29.1023 11.2961C28.8596 11.361 28.6282 11.4627 28.4163 11.5976L17.247 18.7157C16.9736 18.8876 16.7392 19.1147 16.5586 19.3823C16.378 19.65 16.2552 19.9524 16.1981 20.2702C16.1405 20.5946 16.1481 20.9273 16.2206 21.2487C16.2931 21.5702 16.429 21.8739 16.6203 22.1422C16.932 22.5918 17.3742 22.935 17.887 23.1254C18.3999 23.3158 18.9589 23.3442 19.4885 23.2069C19.7311 23.1419 19.9625 23.0402 20.1745 22.9054L24.436 20.1895C25.1366 19.7432 25.9014 19.407 26.7039 19.1926C30.304 18.2566 34.106 19.6659 36.2263 22.7224C36.8618 23.612 37.3133 24.6195 37.5543 25.6859C37.7952 26.7523 37.8207 27.8561 37.6293 28.9325C37.4399 29.9877 37.0325 30.9917 36.433 31.8805C35.8335 32.7693 35.0552 33.5232 34.1478 34.0941L22.9794 41.2119C22.2782 41.6582 21.513 41.9945 20.71 42.209Z" fill="#222C2A"/>
</svg>
