<svg width="60" height="60" viewBox="0 0 60 60" fill="none" xmlns="http://www.w3.org/2000/svg">
<path d="M46.25 23.775C44.3751 23.1292 42.7202 21.9682 41.475 20.425C40.1026 18.7055 38.3551 17.3228 36.3663 16.3825C34.3774 15.4422 32.1997 14.9693 30 15C27.0409 14.7904 24.1115 15.7031 21.795 17.5562C19.4786 19.4094 17.9451 22.067 17.5 25C18.3767 23.5331 19.6961 22.3821 21.2685 21.7128C22.8408 21.0434 24.585 20.8901 26.25 21.275C28.1217 21.9395 29.774 23.1073 31.025 24.65C32.4049 26.3556 34.1557 27.7241 36.1442 28.6512C38.1326 29.5783 40.3064 30.0396 42.5 30C45.4591 30.2095 48.3885 29.2968 50.705 27.4437C53.0214 25.5905 54.5549 22.9329 55 20C54.1392 21.4844 52.824 22.6527 51.2484 23.3325C49.6729 24.0122 47.9205 24.1673 46.25 23.775ZM13.75 36.225C15.6249 36.8707 17.2798 38.0317 18.525 39.575C19.8974 41.2944 21.6449 42.6771 23.6337 43.6174C25.6226 44.5577 27.8003 45.0306 30 45C32.9591 45.2095 35.8885 44.2968 38.205 42.4437C40.5214 40.5905 42.0549 37.9329 42.5 35C41.6233 36.4668 40.3039 37.6178 38.7315 38.2872C37.1592 38.9565 35.415 39.1098 33.75 38.725C31.8783 38.0604 30.226 36.8926 28.975 35.35C27.5914 33.6485 25.8399 32.283 23.8523 31.3564C21.8647 30.4297 19.6928 29.9659 17.5 30C14.5409 29.7904 11.6115 30.7031 9.29501 32.5562C6.97857 34.4094 5.44511 37.067 5 40C5.86077 38.5155 7.17602 37.3472 8.75158 36.6675C10.3271 35.9877 12.0795 35.8326 13.75 36.225Z" fill="white"/>
</svg>
