<svg width="48" height="48" viewBox="0 0 48 48" fill="none" xmlns="http://www.w3.org/2000/svg">
<path d="M40.875 18.75H39.075L38.625 21H37.2L37.65 18.75H35.8125L35.3625 21H33.375V22.875H35.025L34.6875 24.375H33.375V26.25H34.3125L33.8625 28.5H35.6625L36.1125 26.25H37.5375L37.0875 28.5H38.925L39.375 26.25H41.25V24.375H39.7125L40.05 22.875H41.25V21H40.425L40.875 18.75ZM37.9125 24.375H36.4875L36.825 22.875H38.25L37.9125 24.375ZM43.6875 12.1125C43.4625 11.7 43.1625 11.325 42.825 11.1375L24.7875 0.712451C24.4875 0.524951 24.075 0.449951 23.625 0.449951C23.175 0.449951 22.7625 0.562451 22.4625 0.712451L4.275 11.1375C3.6375 11.5125 3 12.45 3 13.1625V34.05C3 34.4625 3.2625 34.9125 3.525 35.325L3.5625 35.3625C3.75 35.6625 4.05 35.9249 4.3125 36.075L22.425 46.5375C22.725 46.725 23.175 46.8 23.625 46.8C24.075 46.8 24.4875 46.6875 24.7875 46.5375L42.6 36.075C43.2375 35.7 43.5 34.7625 43.5 34.05V13.1625C43.5 12.8625 43.65 12.4875 43.5 12.1875L43.6875 12.1125ZM42.1125 12.9C42.1125 13.0125 42 13.0875 42 13.1625V34.05C42 34.35 41.925 34.6875 41.85 34.8L24 45.225C23.9625 45.2625 23.8125 45.3 23.5875 45.3C23.3625 45.3 23.2125 45.2625 23.175 45.225L5.1 34.8C5.1 34.8 5.0625 34.7625 5.025 34.7625L4.8 34.5375C4.65 34.275 4.875 34.125 4.5 34.0875V13.2C4.875 13.0125 4.8375 12.5625 5.025 12.4875L23.1375 2.02495C23.175 2.02495 23.3625 1.94995 23.5875 1.94995C23.8125 1.94995 23.9625 1.98745 24 2.02495L42 12.4125L42.15 12.75C42.1875 12.7875 42.1125 12.8625 42.1125 12.9ZM23.625 32.8125C18.5625 32.8125 14.4375 28.6875 14.4375 23.625C14.4375 18.5625 18.5625 14.4375 23.625 14.4375C27.0375 14.4375 30.0375 16.3125 31.6125 19.125L36.4875 16.3125C33.9375 11.85 29.1375 8.81245 23.625 8.81245C15.45 8.81245 8.8125 15.45 8.8125 23.625C8.8125 31.7999 15.45 38.4375 23.625 38.4375C29.1 38.4375 33.9 35.4375 36.45 31.0125L31.6125 28.1625C30.0375 30.9375 27.0375 32.8125 23.625 32.8125Z" fill="white"/>
</svg>
