<svg width="24" height="24" viewBox="0 0 24 24" fill="none" xmlns="http://www.w3.org/2000/svg">
<path d="M6.036 16C5.468 16 5.024 15.92 4.704 15.76C4.384 15.6 4.16 15.36 4.032 15.04C3.904 14.72 3.84 14.324 3.84 13.852V11.176C3.84 10.408 4.012 9.844 4.356 9.484C4.7 9.116 5.26 8.932 6.036 8.932H9.648C10.2 8.932 10.62 8.964 10.908 9.028C11.204 9.084 11.352 9.144 11.352 9.208L11.112 10.204C10.976 10.18 10.572 10.156 9.9 10.132C9.236 10.1 8.268 10.084 6.996 10.084H6.384C5.744 10.084 5.424 10.368 5.424 10.936V13.996C5.424 14.268 5.492 14.48 5.628 14.632C5.772 14.776 6.024 14.848 6.384 14.848H6.876C8.204 14.848 9.232 14.836 9.96 14.812C10.696 14.78 11.152 14.748 11.328 14.716L11.82 15.508C11.82 15.548 11.752 15.608 11.616 15.688C11.488 15.768 11.248 15.84 10.896 15.904C10.544 15.968 10.036 16 9.372 16H6.036ZM15.5266 16L12.1786 8.956H13.8586L16.1146 13.816L16.4386 14.68H16.5466L16.8586 13.816L19.1386 8.956H20.7706L20.5786 9.676L17.4466 16H15.5266Z" fill="#00FFC2"/>
<rect x="1" y="1" width="22" height="22" rx="6" stroke="#00FFC2" stroke-width="2"/>
</svg>
