<svg width="48" height="48" viewBox="0 0 48 48" fill="none" xmlns="http://www.w3.org/2000/svg">
<g clip-path="url(#clip0_64_317)">
<path d="M5.6593 15.615H8.28426V27.7656C6.93775 28.0213 5.94906 28.1236 4.87515 28.1236C1.67046 28.1234 0 26.6747 0 23.8962C0 21.22 1.77284 19.4814 4.51711 19.4814C4.94322 19.4814 5.26706 19.5154 5.6593 19.6177V15.615ZM5.6593 21.7312C5.3525 21.629 5.09684 21.5949 4.77288 21.5949C3.44331 21.5949 2.6762 22.4132 2.6762 23.8449C2.6762 25.2428 3.40922 26.0098 4.75584 26.0098C5.04559 26.0098 5.28433 25.9929 5.6593 25.9417V21.7312Z" fill="white"/>
<path d="M12.4602 19.6688V25.754C12.4602 27.8506 12.3067 28.8564 11.8466 29.7256C11.4204 30.561 10.8578 31.0893 9.69881 31.669L7.26123 30.5099C8.42036 29.9644 8.98283 29.4872 9.34076 28.754C9.71585 28.0042 9.83527 27.1347 9.83527 24.8506V19.6688H12.4602ZM9.83527 15.6289H12.4602V18.3221H9.83527V15.6289ZM14.0458 20.2653C15.205 19.72 16.3129 19.4814 17.5232 19.4814C18.8698 19.4814 19.7561 19.8392 20.1483 20.5381C20.3697 20.9302 20.4379 21.4415 20.4379 22.5326V27.8677C19.2616 28.0381 17.7787 28.1576 16.6879 28.1576C14.4891 28.1576 13.5003 27.3902 13.5003 25.6858C13.5003 23.8447 14.8128 22.9924 18.0344 22.7196V22.1401C18.0344 21.6629 17.7958 21.4925 17.131 21.4925C16.1594 21.4925 15.0685 21.7652 14.0456 22.2937L14.0458 20.2653ZM18.1539 24.4415C16.4152 24.612 15.8526 24.8847 15.8526 25.5666C15.8526 26.0778 16.1766 26.3164 16.8924 26.3164C17.2846 26.3164 17.6424 26.2825 18.1538 26.1972L18.1539 24.4415ZM21.7165 20.0778C23.2675 19.6688 24.5459 19.4814 25.8414 19.4814C27.188 19.4814 28.1597 19.7881 28.7394 20.3847C29.2848 20.9471 29.4552 21.5607 29.4552 22.8735V28.0211H26.8301V22.9757C26.8301 21.9701 26.4892 21.5949 25.5518 21.5949C25.1938 21.5949 24.87 21.629 24.3414 21.7824V28.0211H21.7165V20.0778ZM30.4756 29.4529C31.3963 29.9303 32.3167 30.1516 33.2882 30.1516C35.0096 30.1516 35.7426 29.4529 35.7426 27.7824V27.7312C35.2314 27.9868 34.7198 28.0892 34.0382 28.0892C31.7369 28.0892 30.2708 26.5721 30.2708 24.1688C30.2708 21.1856 32.4358 19.4982 36.2709 19.4982C37.3959 19.4982 38.4358 19.6174 39.6971 19.8731L38.7983 21.7666C38.0995 21.6302 38.7423 21.7483 38.2142 21.6972V21.97L38.2481 23.0778L38.2651 24.5097C38.2821 24.8675 38.2821 25.2256 38.2993 25.5835V26.2996C38.2993 28.5496 38.1118 29.6063 37.5494 30.4757C36.7312 31.7543 35.3163 32.3848 33.3049 32.3848C32.2821 32.3848 31.396 32.2314 30.4754 31.8735L30.4756 29.4529ZM35.6917 21.6119H35.4191C34.9079 21.5949 34.3113 21.7311 33.902 21.9868C33.2715 22.3449 32.9473 22.9927 32.9473 23.9131C32.9473 25.2257 33.5953 25.9757 34.7544 25.9757C35.1123 25.9757 35.4021 25.9074 35.7428 25.8052V24.9019C35.7428 24.5949 35.726 24.2538 35.726 23.8961L35.7091 22.686L35.6919 21.8166L35.6917 21.6119ZM43.7725 19.4472C46.3975 19.4472 47.9999 21.1007 47.9999 23.7768C47.9999 26.5213 46.3295 28.2429 43.6702 28.2429C41.0451 28.2429 39.4256 26.5894 39.4256 23.9303C39.4258 21.1687 41.0964 19.4472 43.7725 19.4472ZM43.7212 26.1291C44.7269 26.1291 45.3236 25.2938 45.3236 23.8449C45.3236 22.4131 44.7439 21.5608 43.7384 21.5608C42.6985 21.5608 42.1017 22.3962 42.1017 23.8449C42.1019 25.2939 42.6986 26.1291 43.7212 26.1291Z" fill="white"/>
</g>
<defs>
<clipPath id="clip0_64_317">
<rect width="48" height="48" fill="white"/>
</clipPath>
</defs>
</svg>
