<svg width="24" height="24" viewBox="0 0 24 24" fill="none" xmlns="http://www.w3.org/2000/svg">
<path d="M5.03998 16.5C5.31612 16.5 5.53998 16.2761 5.53998 16C5.53998 15.7239 5.31612 15.5 5.03998 15.5C4.76384 15.5 4.53998 15.7239 4.53998 16C4.53998 16.2761 4.76384 16.5 5.03998 16.5Z" stroke="white" stroke-linecap="round" stroke-linejoin="round"/>
<path d="M4.5 9.5H1.5V12.5H4.5M4.5 9.5V12.5M4.5 9.5H7.5M4.5 9.5V6.5H7.5M4.5 12.5H7.5M7.5 9.5V12.5M7.5 9.5H10.5M7.5 9.5V6.5M7.5 12.5H10.5M10.5 9.5V12.5M10.5 9.5H13.5M10.5 9.5V6.5M10.5 12.5H13.5M13.5 9.5V12.5M13.5 9.5V6.5M13.5 9.5H16.5V12.5H13.5M7.5 6.5H10.5M10.5 6.5H13.5M10.5 6.5V3.5H13.5V6.5" stroke="white" stroke-linecap="round" stroke-linejoin="round"/>
<path d="M23.5 11.5C23.5 11.5 21.75 10.38 20.5 11C20.4476 10.4991 20.2862 10.0157 20.0271 9.58377C19.7679 9.15187 19.4174 8.78195 19 8.5C18.7085 8.9134 18.5064 9.38302 18.4065 9.87889C18.3067 10.3748 18.3113 10.886 18.42 11.38C18.4371 11.521 18.4239 11.6641 18.3813 11.7996C18.3387 11.9352 18.2678 12.0601 18.1732 12.166C18.0786 12.272 17.9624 12.3566 17.8326 12.4142C17.7027 12.4718 17.5621 12.501 17.42 12.5H0.5C0.5 18.75 4.33 20.5 8 20.5C10.4515 20.5133 12.8621 19.8715 14.9824 18.6408C17.1027 17.4101 18.8556 15.6353 20.06 13.5C20.7451 13.4399 21.4086 13.2295 22.0031 12.8838C22.5977 12.5381 23.1088 12.0657 23.5 11.5Z" stroke="white" stroke-linecap="round" stroke-linejoin="round"/>
</svg>
