<svg width="48" height="48" viewBox="0 0 48 48" fill="none" xmlns="http://www.w3.org/2000/svg">
<path d="M15.1988 29.1824V19.0274H15.75V20.6249C15.8151 20.5542 15.8753 20.479 15.93 20.3999C16.1553 19.9323 16.5091 19.5387 16.9502 19.265C17.3912 18.9914 17.901 18.8491 18.42 18.8549C19.6763 18.8174 20.6963 19.2824 21.2963 20.3999C21.678 21.0941 21.8881 21.8696 21.909 22.6616C21.9299 23.4536 21.7609 24.2391 21.4163 24.9524C20.8575 26.2049 19.4775 26.8274 18 26.5987C17.5402 26.5595 17.0976 26.4058 16.7124 26.1517C16.3273 25.8975 16.0119 25.551 15.795 25.1437V29.1824H15.1988ZM15.75 22.6199C15.7988 23.1149 15.8175 23.4674 15.8738 23.8124C16.0913 25.1699 16.8938 25.9762 18.1538 26.1224C18.7454 26.2197 19.3524 26.1087 19.8714 25.8086C20.3905 25.5084 20.7893 25.0375 21 24.4762C21.2421 23.8988 21.3587 23.2765 21.3419 22.6507C21.3251 22.0248 21.1753 21.4097 20.9025 20.8462C20.6776 20.3431 20.2951 19.9268 19.8127 19.6603C19.3304 19.3937 18.7744 19.2914 18.2288 19.3687C17.7165 19.4058 17.2285 19.6016 16.8326 19.9289C16.4368 20.2562 16.1527 20.6987 16.02 21.1949C15.9026 21.6643 15.8124 22.1401 15.75 22.6199ZM33.1538 23.9999C33.0702 24.7149 32.7299 25.3752 32.196 25.8581C31.6621 26.3409 30.971 26.6134 30.2513 26.6249C27.9413 26.7412 26.8575 25.2074 26.685 23.4374C26.5653 22.4762 26.7214 21.5008 27.135 20.6249C27.4231 20.0241 27.8949 19.5306 28.4821 19.2158C29.0693 18.9009 29.7414 18.7811 30.4013 18.8737C31.0286 18.9268 31.6232 19.176 32.1011 19.5859C32.5789 19.9957 32.9157 20.5455 33.0638 21.1574C33.1811 21.7147 33.2675 22.2781 33.3225 22.8449H27.2513C27.1388 24.4499 28.0013 25.7399 29.2238 26.0512C30.7463 26.4262 32.0475 25.7662 32.52 24.3187C32.625 23.9474 32.8163 23.8949 33.1538 23.9999ZM27.2513 22.3312H32.6775C32.6438 20.6212 31.5788 19.3837 30.135 19.3649C28.5 19.3387 27.3225 20.5312 27.2513 22.3312ZM34.2713 24.0374H34.8038C34.8234 24.4292 34.9508 24.8081 35.1717 25.1322C35.3927 25.4564 35.6987 25.7134 36.0563 25.8749C36.5052 26.077 36.9939 26.1751 37.4861 26.1621C37.9782 26.1492 38.4611 26.0253 38.8988 25.7999C39.1373 25.6924 39.3371 25.5143 39.4712 25.2897C39.6053 25.065 39.6673 24.8046 39.6488 24.5437C39.6625 24.292 39.5938 24.0427 39.453 23.8336C39.3122 23.6244 39.1071 23.4669 38.8688 23.3849C38.2838 23.1674 37.6613 23.0474 37.065 22.8562C36.4446 22.6795 35.838 22.4577 35.25 22.1924C34.29 21.7237 34.23 19.8974 35.3175 19.3199C35.8744 19.0057 36.501 18.8359 37.1404 18.8261C37.7797 18.8163 38.4113 18.9667 38.9775 19.2637C39.3205 19.4532 39.5976 19.7429 39.7718 20.0939C39.946 20.445 40.009 20.8409 39.9525 21.2287H39.495C39.495 21.2062 39.4538 21.1874 39.4538 21.1649C39.3975 19.7062 38.175 19.2562 36.8625 19.3837C36.4707 19.432 36.0902 19.5474 35.7375 19.7249C35.5257 19.8218 35.3491 19.9821 35.2322 20.1836C35.1154 20.3851 35.0639 20.6179 35.085 20.8499C35.0857 21.082 35.1581 21.3082 35.2924 21.4976C35.4266 21.6869 35.6162 21.8301 35.835 21.9074C36.4125 22.1174 37.0163 22.2524 37.6088 22.4174C38.085 22.5487 38.58 22.6349 39.0413 22.7924C39.3668 22.8991 39.6523 23.1022 39.8599 23.3748C40.0675 23.6473 40.1874 23.9765 40.2038 24.3187C40.2594 24.6936 40.1955 25.0766 40.0212 25.4132C39.8468 25.7497 39.5709 26.0228 39.2325 26.1937C37.98 26.9024 35.9175 26.7149 34.9988 25.8187C34.7659 25.5845 34.5818 25.3065 34.4569 25.0008C34.332 24.6951 34.2689 24.3677 34.2713 24.0374ZM46.9538 21.2287H46.455C46.455 21.1612 46.4288 21.1012 46.4213 21.0449C46.4132 20.6711 46.2769 20.3113 46.0352 20.026C45.7936 19.7406 45.4612 19.547 45.0938 19.4774C44.4005 19.2785 43.661 19.3141 42.99 19.5787C42.7248 19.6547 42.4913 19.8145 42.3244 20.0341C42.1574 20.2538 42.066 20.5215 42.0638 20.7974C42.0544 21.0684 42.1389 21.3342 42.3029 21.5501C42.4668 21.766 42.7003 21.9187 42.9638 21.9824C43.7138 22.2149 44.4825 22.3574 45.2438 22.5674C45.4905 22.6266 45.7334 22.7005 45.9713 22.7887C46.3265 22.9158 46.6351 23.147 46.8568 23.4523C47.0785 23.7576 47.2029 24.1226 47.2139 24.4997C47.2248 24.8768 47.1217 25.2485 46.9181 25.5661C46.7145 25.8837 46.4198 26.1325 46.0725 26.2799C45.5433 26.5202 44.9698 26.6474 44.3886 26.6532C43.8074 26.659 43.2314 26.5433 42.6975 26.3137C42.2585 26.1243 41.888 25.805 41.6359 25.3987C41.3838 24.9924 41.2622 24.5186 41.2875 24.0412H41.4975H41.775C41.8652 24.4763 42.0601 24.8828 42.3428 25.2257C42.6255 25.5685 42.9875 25.8372 43.3975 26.0086C43.8075 26.18 44.2531 26.2488 44.6957 26.2092C45.1383 26.1696 45.5645 26.0227 45.9375 25.7812C46.1647 25.6631 46.3534 25.4824 46.481 25.2604C46.6086 25.0384 46.6699 24.7844 46.6575 24.5287C46.6688 24.2768 46.5977 24.0282 46.4549 23.8204C46.3121 23.6126 46.1054 23.4571 45.8663 23.3774C45.2813 23.1599 44.6588 23.0437 44.0625 22.8524C43.4386 22.6785 42.8282 22.4591 42.2363 22.1962C41.2988 21.7349 41.2238 19.9237 42.2925 19.3462C42.8563 19.0188 43.4952 18.8429 44.1471 18.8357C44.799 18.8284 45.4416 18.9901 46.0125 19.3049C46.339 19.4998 46.6018 19.7854 46.7689 20.127C46.936 20.4685 47.0002 20.8513 46.9538 21.2287ZM14.2875 26.4412C14.0912 26.5155 13.8744 26.5154 13.6782 26.4407C13.4819 26.3661 13.3198 26.2222 13.2225 26.0362C12.6113 25.1212 11.9363 24.2474 11.2875 23.3549L11.0063 22.9799C10.2338 24.0149 9.46127 25.0087 8.75627 26.0399C8.66441 26.2177 8.51107 26.356 8.3248 26.4292C8.13854 26.5023 7.93204 26.5052 7.74377 26.4374L10.6425 22.5487L7.94627 19.0349C8.14035 18.9648 8.35267 18.9639 8.54739 19.0322C8.7421 19.1005 8.90727 19.2339 9.01502 19.4099C9.64127 20.3249 10.335 21.1987 11.025 22.1249C11.7188 21.2062 12.405 20.3287 13.0463 19.4212C13.1386 19.2463 13.2921 19.1114 13.4774 19.0423C13.6627 18.9731 13.8669 18.9745 14.0513 19.0462L13.005 20.4337C12.5363 21.0524 12.075 21.6749 11.5875 22.2787C11.5482 22.3138 11.5168 22.3569 11.4953 22.405C11.4738 22.4532 11.4627 22.5053 11.4627 22.558C11.4627 22.6108 11.4738 22.6629 11.4953 22.711C11.5168 22.7592 11.5482 22.8022 11.5875 22.8374C12.4838 24.0262 13.3725 25.2187 14.2875 26.4412ZM26.595 18.9974V19.5224C26.2157 19.4975 25.8355 19.5525 25.4787 19.6837C25.122 19.8148 24.7967 20.0194 24.5239 20.284C24.2511 20.5487 24.0368 20.8677 23.8949 21.2203C23.753 21.5729 23.6866 21.9513 23.7 22.3312C23.7 23.5662 23.7 24.8012 23.7 26.0362C23.7 26.1674 23.7 26.2987 23.7 26.4562H23.1638V19.0274H23.6888V20.5499C24.3375 19.4399 25.3388 19.0274 26.595 18.9974ZM0.798767 22.4999C0.877517 22.1249 0.926267 21.7162 1.03502 21.3337C1.68377 19.0274 4.32752 18.0674 6.14627 19.4962C7.21127 20.3324 7.47752 21.5174 7.42502 22.8524H1.42502C1.32752 25.2374 3.04877 26.6774 5.25002 25.9424C5.60709 25.8147 5.92674 25.6001 6.1801 25.3179C6.43347 25.0357 6.61258 24.6949 6.70127 24.3262C6.81752 23.9512 7.00502 23.8874 7.36127 23.9962C7.30259 24.4527 7.14117 24.89 6.88916 25.2751C6.63714 25.6603 6.30109 25.9833 5.90627 26.2199C5.25392 26.5767 4.50547 26.718 3.76796 26.6237C3.03044 26.5294 2.34163 26.2043 1.80002 25.6949C1.2642 25.0925 0.940219 24.3312 0.877517 23.5274C0.877517 23.3999 0.828767 23.2724 0.802517 23.1524C0.800017 22.9299 0.798767 22.7124 0.798767 22.4999ZM1.43252 22.3387H6.85877C6.82502 20.6099 5.73377 19.3837 4.27877 19.3724C2.65877 19.3499 1.50002 20.5499 1.42877 22.3312L1.43252 22.3387Z" fill="white"/>
</svg>
