<svg width="48" height="48" viewBox="0 0 48 48" fill="none" xmlns="http://www.w3.org/2000/svg">
<g clip-path="url(#clip0_64_325)">
<path d="M11.1612 29.6682C9.73874 28.5491 8.22098 27.4768 7.18409 25.9657C5.00133 23.3011 3.32118 20.2167 2.17254 16.9749C1.47807 14.8667 1.24026 12.6066 0.344455 10.5802C-0.591326 9.10797 0.50567 7.49975 2.11812 7.03201C2.83549 6.8937 4.09765 6.21644 2.57405 6.70111C1.20787 7.70284 1.07627 5.79072 2.47688 5.66962C3.4328 5.54284 3.7847 4.76069 3.45745 4.05659C2.43092 3.38693 5.94572 2.65219 4.17701 1.65324C2.3358 -0.333877 6.75355 -0.716418 5.66341 1.54075C5.40284 3.27619 8.75146 1.22196 7.97383 3.22644C8.76386 4.18921 10.9314 3.44601 10.877 4.79585C12.0276 4.87493 12.4225 5.84237 13.5014 5.91677C14.6215 6.42245 16.6499 6.82017 17.0304 8.08144C15.9201 8.96018 13.3498 6.26605 13.2257 8.69888C13.5615 12.2935 13.4759 15.9962 14.7906 19.4191C15.4124 21.4914 16.9206 23.1227 18.282 24.737C19.5853 26.3176 21.3502 27.4311 23.1496 28.3679C24.7274 29.112 26.4286 29.6051 28.1487 29.9153C28.8461 29.3819 30.0776 27.3986 31.1651 28.2343C31.2176 29.1752 29.0064 30.1997 31.0614 30.0956C32.2691 29.7312 33.1058 31.0285 34.0998 29.858C35.0158 30.9429 37.9063 29.1654 37.2548 31.3826C36.3733 31.9513 35.0883 31.6077 34.2059 32.3902C32.751 31.6632 31.5926 33.0398 29.9813 32.8662C28.1926 33.1866 26.3721 33.3156 24.5588 33.3182C21.5831 33.0835 18.5446 32.9844 15.7139 31.9482C14.1188 31.4849 12.5629 30.5765 11.1612 29.6682ZM13.6742 30.7577C15.2312 31.4303 16.7539 32.1401 18.4606 32.3547C21.1681 32.7307 23.9642 33.3106 26.6813 32.7822C25.4517 32.2271 24.1799 32.9978 22.9549 32.3853C21.4858 32.7011 19.9089 32.3042 18.4146 32.1086C16.7164 31.3523 14.8831 30.8323 13.2926 29.8494C11.3044 29.1235 14.3202 30.7806 14.8572 30.9153C16.0994 31.62 13.4909 30.5535 13.1225 30.2607C12.082 29.6768 11.9495 29.7989 13.0198 30.3914C13.2353 30.5174 13.4482 30.6501 13.6742 30.7577ZM10.711 28.6637C12.2203 29.2227 10.7043 27.6027 10.0136 27.6964C9.70723 27.1649 8.84308 26.829 9.45264 26.5438C8.35652 26.9246 8.30399 25.0965 7.78898 25.3581C6.62881 24.9917 7.33757 23.6941 5.9552 22.8968C5.82915 22.057 4.58231 21.3292 4.18548 20.0631C4.00996 19.4144 2.77641 17.5532 3.5339 19.2854C4.17876 20.953 5.31311 22.3824 6.25765 23.8087C6.99034 25.167 7.85667 26.5877 9.19134 27.4349C9.64172 27.8671 10.0758 28.5281 10.711 28.6637ZM6.36459 23.8907C6.64033 24.3838 6.41682 23.6626 6.36459 23.8907V23.8907ZM12.5189 29.3333C12.0381 29.1445 12.8528 29.1836 12.5189 29.3333V29.3333ZM13.3374 29.6321C12.9635 29.8629 13.2527 29.2198 13.3374 29.6321V29.6321ZM14.3631 30.0596C13.6103 29.7664 14.8505 29.5946 14.3631 30.0596V30.0596ZM16.1204 31.039C15.1711 30.8741 16.417 30.6012 16.1204 31.039V31.039ZM12.7461 28.6867C11.7663 28.6799 13.5033 28.1962 12.7461 28.6867V28.6867ZM13.515 29.0701C13.2411 29.1864 13.493 28.8115 13.515 29.0701V29.0701ZM17.3586 31.4694C17.9768 31.8597 20.9678 32.3242 19.0951 31.6296C18.781 31.6955 15.6223 30.7357 17.3586 31.4694ZM11.2568 26.7165C10.2968 26.4294 11.1967 26.4573 11.2568 26.7165V26.7165ZM13.0455 27.7604C12.0791 27.5095 13.5119 27.4351 13.0455 27.7604V27.7604ZM14.5508 28.6829C13.4673 28.4301 15.2196 28.4311 14.5508 28.6829V28.6829ZM10.5279 25.9237C11.253 26.4797 13.4531 25.9952 11.6383 25.5918C10.8131 25.1519 8.9528 24.8507 10.2209 25.8571L10.5279 25.9237ZM15.571 29.0014C14.3038 28.7074 15.8733 28.4871 15.571 29.0014V29.0014ZM14.0386 27.7839C15.8113 28.2849 12.5475 26.662 13.6009 27.5989L13.8348 27.7048L14.0386 27.7839ZM17.1109 29.5595C15.5939 29.3278 18.7899 29.5755 17.1109 29.5595V29.5595ZM9.88216 24.9523C9.4681 24.9783 9.81621 24.6395 9.88216 24.9523V24.9523ZM19.9509 31.1527C19.4032 31.5734 19.9957 30.588 19.9509 31.1527V31.1527ZM12.748 26.7069C12.2234 26.6945 12.6459 26.4093 12.748 26.7069V26.7069ZM10.0413 24.756C8.72096 24.3314 11.0051 24.6979 10.0413 24.756V24.756ZM6.83481 22.6837C5.7864 21.8529 6.71474 22.2212 6.83481 22.6837V22.6837ZM15.2523 28.0255C15.1692 28.0693 15.0758 27.824 15.2523 28.0255V28.0255ZM20.4907 31.2406C20.2055 31.3568 20.4747 30.9324 20.4907 31.2406V31.2406ZM14.7887 27.5465C13.9664 27.4262 14.8832 27.1497 14.7887 27.5465V27.5465ZM10.8856 25.0727C9.73597 24.588 11.6032 24.9963 10.8856 25.0727V25.0727ZM17.4877 29.1752C16.3982 28.9594 18.6058 28.7324 17.4877 29.1752V29.1752ZM14.0541 26.8445C15.3419 27.0102 12.521 25.9676 13.7707 26.7508L14.0541 26.8445ZM18.5302 29.5967C19.7334 28.8784 19.3366 31.2806 20.5711 29.7999C21.7883 28.9108 19.5197 30.899 21.0195 29.9584C22.1051 29.2322 23.7078 30.3027 24.7201 30.6509C25.4479 30.6156 26.1559 31.2806 26.9028 30.8759C28.3395 30.4885 24.0923 30.3018 25.2055 29.6156C23.891 29.9985 22.9199 29.1597 22.273 28.3173C20.798 27.9766 19.0932 27.2231 18.3567 25.917C18.0562 25.4277 18.79 25.9868 18.0973 25.1853C17.2091 24.3953 16.7656 23.4975 16.1691 22.5369C15.4564 22.1571 15.3725 21.0381 15.3009 22.4998C15.3067 21.5772 14.4404 20.9561 14.2286 21.2137C14.2248 20.3254 15.156 20.771 14.5043 20.1137C14.3642 19.1929 13.9023 18.2334 13.7639 17.1934C13.5485 16.6926 13.7332 15.6193 13.0275 16.7535C12.7708 17.9528 12.9426 15.2806 13.3424 16.1612C13.867 15.2625 13.1533 15.3683 13.1247 15.4924C13.4664 14.734 13.3414 13.6578 13.0351 14.068C13.2174 13.2637 13.3233 11.1087 12.7633 11.4912C13.1028 10.6498 13.4073 7.64244 11.9322 8.78948C11.335 8.79794 10.3 9.00613 9.81154 9.24934C11.3446 10.0947 9.65689 9.55456 9.03202 9.42004C8.9509 10.2023 8.33273 9.86459 7.55992 9.87218C8.7945 10.0248 6.95883 11.1342 6.2521 10.7032C5.33237 11.1421 7.0449 12.2392 6.27019 12.5787C6.36576 13.0892 4.862 12.3939 4.97945 13.5749C4.08729 13.1988 4.85733 14.9754 5.30377 14.3744C6.82168 14.7855 6.37232 15.7215 6.4104 16.6114C6.16325 17.1294 5.18924 15.3932 6.19374 15.4734C5.40094 14.1862 5.3172 15.0077 4.65876 15.6059C4.50616 15.649 6.33789 16.4568 5.18837 16.8557C6.19958 17.0122 6.2292 17.8975 6.43535 18.4576C7.04301 19.0908 6.91783 17.758 7.646 18.5196C7.18497 17.8412 5.20734 16.6084 6.7998 17.0038C6.79104 16.3215 6.51151 15.7709 6.99997 15.7842C7.48376 14.9094 6.49341 17.9423 7.58297 16.83C7.88425 16.6984 7.95982 15.9542 8.50168 16.9006C9.28865 17.6753 8.78604 18.236 7.67547 17.5264C7.87389 18.2008 9.16084 18.4411 8.91851 19.4955C9.175 20.4228 9.5339 20.0812 9.8467 20.0278C10.0918 20.9284 10.2314 20.2663 10.2428 19.8369C11.3656 20.0777 11.1023 20.7415 11.4542 21.2051C12.2279 21.5541 10.3467 18.8381 11.6748 20.3884C13.0722 21.6506 12.1994 22.1771 10.945 21.975C11.7387 21.9108 11.9942 23.0484 12.9876 23.0083C13.8929 23.4394 14.5064 25.0937 12.9455 24.4048C12.4046 23.9163 10.4878 23.3144 12.0535 24.2427C13.4979 24.9124 14.6466 25.3121 16.0403 26.1528C17.0374 26.8645 17.4683 27.6799 17.8462 27.8414C17.0077 28.2419 15.3202 27.5217 16.5736 27.3014C15.7913 27.1592 14.9118 26.7634 15.6605 27.7374C16.2978 28.2697 17.9168 28.2133 18.2079 28.2734C17.9618 28.8154 17.5393 28.8584 18.2174 28.9003C17.4608 29.3039 18.4606 29.3669 18.5302 29.5967ZM16.9828 25.2263C16.5221 24.7446 16.4029 23.8431 16.9008 24.627C17.1566 24.7301 17.7186 26.1013 16.9828 25.2263ZM22.0231 28.428C22.0316 28.6463 22.3102 28.4091 22.0231 28.428V28.428ZM16.2561 24.0453C16.4218 24.607 16.2377 23.3173 16.2561 24.0453V24.0453ZM15.7551 23.3717C16.4849 23.6884 15.1751 22.2527 15.7551 23.3717V23.3717ZM9.68359 19.1817C9.85152 19.7634 10.0243 19.0908 9.68359 19.1817V19.1817ZM14.5158 21.8004C14.7611 22.4588 14.7248 21.0152 14.5158 21.8004V21.8004ZM11.1023 19.4267C11.6052 19.8333 10.862 18.9936 11.1023 19.4267V19.4267ZM14.0312 20.3655C13.4826 19.1368 14.4204 19.6938 14.1533 20.5668L14.0312 20.3655ZM8.97964 16.9967C8.73453 16.5933 8.32894 15.4103 8.45966 15.0489C8.57697 15.6374 9.71044 17.5808 9.0148 15.8541C8.24695 14.4068 9.93366 16.3233 10.1073 16.685C10.1884 17.0437 9.63311 16.5868 10.0089 17.429C9.32308 16.4702 9.60437 17.9586 8.97964 16.9967ZM7.41884 15.9208C7.7757 16.5637 7.48274 14.9829 7.41884 15.9208V15.9208ZM8.12104 16.1629C8.68858 17.1495 8.45587 15.4554 8.12104 16.1629V16.1629ZM6.43141 14.8562C5.8503 14.2778 5.42954 13.7456 6.45898 14.4972C6.85495 14.5126 5.57762 13.2867 6.55455 14.108C7.58093 14.2952 7.06095 15.7921 6.43141 14.8562ZM7.31861 14.8332C7.49806 15.1624 7.6565 14.4984 7.31861 14.8332V14.8332ZM7.86528 15.0077C8.48636 15.4104 7.35289 14.0489 7.86528 15.0077V15.0077ZM6.77966 13.9709C5.09018 12.4661 8.90232 14.7568 7.05541 14.2492L6.77966 13.9709ZM11.6212 16.7832C10.8896 16.3452 11.4266 13.697 11.6767 15.5077C12.3875 15.2776 11.6373 16.4437 12.1669 16.4321C12.084 17.1674 11.8465 17.4321 11.6212 16.7832ZM13.412 17.8421C13.5627 18.388 13.4835 17.0437 13.412 17.8421V17.8421ZM13.1011 17.5339C13.1087 17.9356 13.1812 17.1934 13.1011 17.5339V17.5339ZM7.11056 13.4766C6.02509 11.9786 10.2656 14.9914 7.80619 13.8563C7.54942 13.7886 7.23953 13.7647 7.11056 13.4766ZM10.5594 15.3046C10.7885 15.5133 10.4566 14.0434 10.5594 15.3046V15.3046ZM13.1772 16.9843C13.1927 17.4597 13.3794 16.2661 13.1772 16.9843V16.9843ZM7.27761 12.9051C7.92262 12.7668 9.95073 14.0375 8.0885 13.2676C7.88162 13.0386 7.43985 13.1427 7.27761 12.9051ZM12.8175 15.666C12.8865 14.3763 13.2032 14.8961 12.8204 15.8512L12.8175 15.666ZM7.75746 12.4559C8.02066 12.0703 7.05891 10.7128 7.89563 11.9692C8.25745 12.2563 8.94214 12.45 8.3374 12.5711C9.2885 13.4099 8.10572 12.7983 7.75746 12.4559ZM12.5436 15.2635C12.7041 16.124 12.7251 13.7943 12.5436 15.2635V15.2635ZM7.20787 11.0992C7.31467 11.367 7.40921 11.0131 7.20787 11.0992V11.0992ZM8.45675 11.8424C9.04909 12.594 8.77801 11.1677 8.45675 11.8424V11.8424ZM11.978 13.8009C12.0446 14.1777 11.975 13.5424 11.978 13.8009V13.8009ZM11.7737 13.3498C12.2289 13.9879 11.2852 12.1438 11.7737 13.3498V13.3498ZM11.474 12.5587C11.7527 13.1846 11.3923 12.0606 11.474 12.5587V12.5587ZM11.9625 11.765C11.6268 11.1743 12.3863 9.16049 12.4712 10.4094C12.1171 11.3825 12.3691 11.9264 12.6151 10.6212C13.0713 9.59468 12.5169 12.6486 11.9625 11.765ZM12.4644 8.77037C12.4969 8.98673 12.6106 8.59091 12.4644 8.77037V8.77037ZM11.6261 25.2873C11.6516 25.3972 11.4275 25.1137 11.6261 25.2873V25.2873ZM13.3527 26.1604C14.3133 26.4075 14.3087 26.0114 13.4403 25.8931C12.9739 25.4592 11.4999 24.9983 12.8193 25.8397C12.9063 26.0612 13.182 26.0553 13.3527 26.1604ZM9.94314 23.8953C10.4716 24.2906 11.9359 25.0135 10.6967 24.0463C11.1145 23.5605 9.89718 23.3021 10.3009 22.9769C9.27333 22.3479 9.48969 22.4043 10.2103 22.4244C8.9757 21.8719 10.3886 21.9139 10.3219 21.6307C9.84583 21.5371 7.95676 20.7909 9.0682 21.6917C7.93867 21.1163 8.79902 21.9063 8.45762 21.8233C7.30212 21.5085 9.48619 22.7031 8.27438 22.4063C8.9366 22.931 10.0575 23.7515 8.55391 22.9614C8.35652 23.2467 9.63034 23.679 9.94314 23.8953ZM11.7489 24.9334C10.6717 24.0681 13.9442 25.6404 11.7489 24.9334V24.9334ZM20.9935 30.5335C20.6938 30.9055 21.0221 30.0975 20.9935 30.5335V30.5335ZM21.9437 30.9332C22.4503 30.443 21.9647 31.7155 22.7832 30.8132C22.7917 30.1671 22.7584 29.7858 21.8426 30.5707C21.5896 30.711 21.4773 31.3051 21.9437 30.9332ZM6.86064 21.461C5.77006 20.8521 6.70496 20.8494 6.86064 21.461V21.461ZM7.87462 22.1257C6.53033 21.5601 7.49777 21.501 7.87462 22.1257V22.1257ZM13.6475 25.607C14.2115 26.108 16.2358 25.9744 14.3317 25.6691C14.0501 25.2522 12.5419 25.3524 13.6475 25.607ZM21.582 30.5081C20.7417 30.8324 22.4493 29.7801 21.582 30.5081V30.5081ZM23.3862 31.7472C23.0123 31.8493 23.3918 31.5135 23.3862 31.7472V31.7472ZM23.3891 31.4199C22.4589 31.4801 24.3497 30.403 23.3891 31.4199V31.4199ZM4.36478 19.3715C3.5463 18.2038 3.85633 17.679 3.06645 16.7249C2.91647 15.9952 1.7118 14.3408 2.44347 16.0934C3.11314 17.119 3.31141 18.7064 4.36478 19.3715ZM23.0876 31.0965C22.3626 30.5994 24.8555 29.9544 23.0876 31.0965V31.0965ZM24.4367 31.6249C23.8766 31.4665 25.322 30.8654 24.4367 31.6249V31.6249ZM6.55994 20.1699C5.9056 20.1213 6.81293 19.793 6.55994 20.1699V20.1699ZM24.1551 31.2643C25.0118 30.7121 23.9577 30.7968 23.9997 31.3148L24.1551 31.2643ZM12.5274 23.9354C12.0744 23.967 12.4979 23.5615 12.5274 23.9354V23.9354ZM13.2458 24.3486C12.8948 24.4211 13.0169 23.8869 13.2458 24.3486V24.3486ZM25.5299 31.6375C26.6279 30.8454 24.865 31.4856 25.2999 31.7882L25.5299 31.6375ZM25.1092 31.4342C24.1656 31.7662 26.004 30.6852 25.1092 31.4342V31.4342ZM27.2574 32.8642C26.5278 32.7345 27.8578 32.4625 27.2574 32.8642V32.8642ZM7.11056 19.8981C7.91474 20.0782 10.3264 21.8795 8.90407 20.0231C8.17531 19.8074 8.61227 18.0262 7.86907 18.341C8.36804 19.1748 8.27904 19.5286 7.23151 19.0041C5.9161 18.361 6.49225 19.3219 6.75005 19.5871C6.39873 19.6672 7.21356 19.8915 7.11041 19.8979L7.11056 19.8981ZM3.44418 17.0027C3.58818 16.4063 2.1171 13.7246 2.74971 15.6584C2.9776 16.0639 2.95396 16.8317 3.44418 17.0027ZM10.1738 21.1516C10.1538 21.102 9.75887 20.8054 10.1738 21.1516V21.1516ZM11.1936 21.3894C10.0661 21.1326 11.1936 20.7577 11.1936 21.3894V21.3894ZM20.0376 26.9637C19.3708 26.9541 19.8688 26.5323 20.0376 26.9637V26.9637ZM20.4621 27.2736C20.2167 27.3204 20.399 27.0323 20.4621 27.2736V27.2736ZM23.9672 29.4821C23.5464 29.4499 24.304 29.2332 23.9672 29.4821V29.4821ZM5.27503 17.4702C4.24165 17.2039 6.23941 17.097 5.27503 17.4702V17.4702ZM19.2589 26.2794C18.6437 26.4351 19.2477 25.6556 19.2589 26.2794V26.2794ZM4.89424 16.5818C4.32087 16.4447 5.51343 16.3732 4.89424 16.5818V16.5818ZM6.69169 17.4528C6.50188 17.5312 6.68104 17.2478 6.69169 17.4528V17.4528ZM28.62 30.8998C29.4166 30.7386 31.2321 31.3054 31.5249 30.6892C30.5576 30.6652 28.1792 30.0059 28.0666 30.8454L28.2784 30.879L28.6201 30.8998H28.62ZM7.26302 17.597C6.76989 17.5732 7.27761 16.9644 7.26302 17.597V17.597ZM2.53714 14.3179C1.72041 14.1356 2.32252 13.1128 2.53714 14.3179V14.3179ZM3.66375 14.6013C2.63226 14.253 3.67819 14.2139 3.66375 14.6013V14.6013ZM4.30774 14.918C4.16272 15.1077 4.12172 14.7672 4.30774 14.918V14.918ZM8.36133 17.5177C7.9092 17.388 8.55231 17.3421 8.36133 17.5177V17.5177ZM3.87938 14.2044C2.57332 14.068 3.76982 13.2943 3.87938 14.2044V14.2044ZM1.56765 12.7046C1.34239 12.8629 1.53512 12.2849 1.56765 12.7046V12.7046ZM1.91197 12.4454C1.61624 12.5081 1.8558 11.9471 1.91197 12.4454V12.4454ZM3.81081 13.5785C4.61412 13.2637 2.34805 12.9259 3.64668 13.5194L3.81081 13.5785ZM29.2298 29.2799C28.5772 29.134 29.7439 28.8087 29.2298 29.2799V29.2799ZM32.3008 30.8712C31.7817 30.9515 32.5069 30.2627 32.3008 30.8712V30.8712ZM4.00486 12.5835C3.36773 12.7008 4.08991 11.9941 4.00486 12.5835V12.5835ZM1.30241 10.7729C1.15739 9.94104 1.17738 8.48032 2.56559 8.9736C0.712698 9.34184 3.84875 11.2773 3.45278 9.74904C4.23216 9.78741 4.9774 9.28844 4.56802 10.0448C6.10402 9.87597 7.1679 8.54423 8.65123 8.73127C9.80644 8.57778 11.0696 8.46223 12.3147 7.99668C13.3383 7.92314 14.3237 6.82119 13.763 6.16772C12.3672 6.04954 10.9055 6.22403 9.36291 6.53129C7.65344 6.88611 6.10037 7.56147 4.37529 7.85166C2.69324 8.0778 4.71304 8.47361 4.23114 8.56232C3.3543 8.86666 5.2778 9.07179 4.11763 9.3932C3.40128 9.25693 2.65517 9.0108 2.9614 8.25521C1.351 8.465 -0.0647855 9.13277 1.20802 10.7718L1.30256 10.7727L1.30241 10.7729ZM5.18443 8.79604C5.56128 7.40521 7.20685 9.94104 5.80259 8.98119C5.63554 8.85513 5.35878 8.753 5.18443 8.79604ZM5.25767 8.12142C5.54684 8.3496 5.80259 7.71612 5.25767 8.12142V8.12142ZM5.94937 8.13309C5.99926 7.49289 7.53424 8.47171 6.20235 8.36302L5.94937 8.13309ZM6.8958 7.75245C6.99617 8.11106 7.24216 7.34773 6.8958 7.75245V7.75245ZM7.13828 7.59035C7.71442 6.89866 10.398 7.14843 8.43369 7.52237C7.90701 7.12553 7.5036 7.75609 7.13828 7.59035ZM10.6413 7.05024C12.3824 7.72093 10.5546 5.16015 10.6413 7.05024V7.05024ZM11.6355 7.04441C11.9988 6.09243 13.0464 6.66201 11.8043 6.8527C11.8309 6.95483 11.7671 7.3451 11.6355 7.04441ZM3.61312 12.0951C2.46054 11.518 4.69859 11.4301 3.61312 12.0951V12.0951ZM4.41628 12.3174C3.58818 12.1533 4.79707 11.913 4.41628 12.3174V12.3174ZM2.05042 10.6393C1.31583 10.4581 2.67049 10.1622 2.05042 10.6393V10.6393ZM34.1133 30.6976C33.6391 30.9465 34.1313 30.1442 34.1133 30.6976V30.6976ZM30.8552 28.4737C30.4365 28.5292 30.9477 27.8376 30.8552 28.4737V28.4737ZM35.0091 30.9124C35.8764 30.9153 37.6372 30.6422 35.7502 30.6432C35.4536 30.6892 34.0246 30.6797 35.0091 30.9124ZM5.12242 11.927C5.82463 11.8793 6.22044 11.1531 4.98586 11.1943C3.07316 10.9969 6.67345 11.8498 4.74076 11.6056C4.48135 11.7773 5.10696 11.9747 5.12242 11.927ZM5.74059 12.2401C5.52291 12.4794 5.66706 11.7897 5.74059 12.2401V12.2401ZM6.47416 10.2842C6.05252 10.1831 6.7785 9.90632 6.47416 10.2842V10.2842ZM4.13864 6.38145C5.39233 5.95602 7.10574 5.47704 7.69735 6.59155C7.09524 5.86746 7.45414 5.15373 8.0227 6.21367C8.82689 7.28514 9.22927 5.72623 8.70652 5.36645C9.30295 6.10673 9.9802 6.45703 9.10526 5.41343C10.0565 4.26945 7.20203 5.56312 6.55338 5.5497C6.24145 5.68976 3.33052 6.29187 4.13864 6.38145ZM4.87323 4.97545C5.58798 4.43651 7.34516 5.29686 6.21752 4.43913C6.10694 4.34197 3.74866 5.08983 4.87323 4.97545ZM7.4788 5.08312C8.3145 5.10413 7.11829 3.95928 8.11418 4.47823C7.95107 3.9441 6.95416 3.84387 6.46672 3.63028C6.19097 4.11874 7.0274 5.08983 7.4788 5.08312ZM5.33018 2.71799C4.82275 2.91743 5.61935 2.32596 5.33018 2.71799V2.71799ZM6.39523 2.97258C7.74302 2.79429 6.05149 2.39264 6.12298 2.95843L6.39523 2.97258ZM4.40666 1.41761C3.45731 0.178366 6.1917 1.62566 5.22703 0.328056C4.41526 -0.317682 3.63588 1.05608 4.40666 1.41761ZM16.5847 7.97669C17.02 7.20562 14.7884 6.93674 16.2918 7.70357C16.4301 7.74953 16.3989 8.02994 16.5847 7.97669ZM7.74827 36.6922C7.65198 37.0724 7.59231 37.7104 7.56999 38.6059C7.56999 38.7819 7.49076 38.87 7.33188 38.87C7.173 38.87 7.06241 38.7931 6.99982 38.6401C6.82971 38.226 6.66864 37.9373 6.51486 37.7724C6.33366 37.5798 6.09264 37.4634 5.79194 37.4237C5.46878 37.3727 4.66372 37.3471 3.37662 37.3471C3.08191 37.3471 2.88889 37.3785 2.79844 37.4411C2.74168 37.4805 2.71338 37.5657 2.71338 37.6963V41.5493C2.71338 41.6797 2.79552 41.7418 2.95965 41.7364C3.4646 41.7306 4.19598 41.6962 5.15394 41.6343C5.34127 41.6113 5.46762 41.5504 5.53269 41.4511C5.59834 41.3519 5.6621 41.0957 5.7241 40.6815C5.76349 40.4546 5.89714 40.3666 6.12386 40.418C6.31644 40.4577 6.39931 40.5456 6.37086 40.6815C6.21183 41.453 6.16048 42.4566 6.21723 43.6928C6.22321 43.8398 6.12969 43.9195 5.93667 43.9309C5.77765 43.9479 5.67844 43.8627 5.63904 43.6756C5.49198 42.9669 5.21784 42.5882 4.81852 42.5398C4.41876 42.4919 3.76763 42.4677 2.86642 42.4677C2.7643 42.4677 2.71338 42.5043 2.71338 42.5781V46.4057C2.71338 46.6893 2.81799 46.8824 3.02764 46.9841C3.1925 47.0691 3.54674 47.1459 4.09079 47.2138C4.36901 47.2421 4.49055 47.3644 4.45699 47.5795C4.4227 47.7666 4.17351 47.8405 3.7081 47.8008C2.36439 47.6928 1.25558 47.6987 0.38268 47.8181C0.138594 47.8517 0.0170626 47.7525 0.0170626 47.5204C0.0170626 47.3726 0.138594 47.2877 0.38268 47.2651C0.9384 47.2025 1.21604 46.7147 1.21604 45.8021V38.5207C1.21604 38.1469 1.14922 37.8592 1.01631 37.6578C0.882813 37.4564 0.634643 37.2733 0.272236 37.109C0.0452206 37.0069 -0.0396912 36.8682 0.0169167 36.6922C0.0452206 36.5847 0.0907404 36.5249 0.152746 36.5138C0.2095 36.4966 0.360066 36.5079 0.603421 36.5479C0.960868 36.6045 1.80313 36.633 3.12977 36.633C4.69509 36.633 6.04712 36.5987 7.18715 36.5309C7.56692 36.5078 7.75717 36.5392 7.75717 36.6242C7.75717 36.6473 7.75425 36.6696 7.74827 36.6922ZM13.2642 47.4896C13.2642 47.7165 13.1365 47.8157 12.8815 47.7872C12.0995 47.7134 11.1296 47.7245 9.97291 47.8209C9.7402 47.844 9.59737 47.838 9.54309 47.8044C9.48911 47.7701 9.46256 47.6768 9.46256 47.5231C9.46256 47.3875 9.61677 47.2728 9.92578 47.1788C10.2352 47.0856 10.3893 46.8062 10.3893 46.3414V38.6436C10.3893 38.184 10.3226 37.8467 10.1897 37.6311C10.0562 37.4156 9.82234 37.2484 9.48794 37.1296C9.31199 37.0669 9.22387 36.979 9.22387 36.8655C9.22387 36.6954 9.35153 36.5679 9.6067 36.4829C9.99245 36.3581 10.3924 36.1657 10.8064 35.9045C11.1466 35.7003 11.3623 35.5986 11.4526 35.5986C11.6622 35.5986 11.7676 35.7427 11.7676 36.032C11.7676 36.0097 11.7562 36.2932 11.7331 36.8826C11.7167 37.4439 11.7108 37.9967 11.7167 38.5415L11.7502 46.1368C11.7502 46.4829 11.8354 46.734 12.0055 46.89C12.1757 47.0458 12.468 47.1492 12.8815 47.2001C13.1365 47.2283 13.2642 47.3247 13.2642 47.4894V47.4896ZM20.9572 46.988C20.9572 47.1073 20.7404 47.2871 20.3068 47.5278C19.8727 47.769 19.5253 47.8895 19.2648 47.8895C19.0433 47.8895 18.8479 47.782 18.6778 47.5663C18.5077 47.3508 18.3882 47.2433 18.3204 47.2433C18.2695 47.2433 18.0001 47.3596 17.5121 47.5917C17.025 47.8244 16.5342 47.9408 16.0409 47.9408C15.5761 47.9408 15.1874 47.8044 14.8756 47.5328C14.5354 47.2319 14.3653 46.8237 14.3653 46.3075C14.3653 45.3265 15.4881 44.6236 17.7337 44.1983C18.1189 44.1245 18.315 43.9685 18.3202 43.7304L18.3376 43.1859C18.3717 42.2561 17.9606 41.7913 17.1042 41.7913C16.8602 41.7913 16.6293 42.0093 16.4106 42.4458C16.1928 42.8829 15.8791 43.1179 15.4709 43.1522C15.006 43.1972 14.7733 43.0017 14.7733 42.5651C14.7733 42.2927 15.1194 41.9757 15.8111 41.6124C16.5371 41.2327 17.2348 41.0424 17.9038 41.0424C19.0547 41.0424 19.6246 41.59 19.6133 42.6843L19.579 46.1883C19.5738 46.557 19.7297 46.7411 20.0469 46.7411C20.1095 46.7411 20.2287 46.7271 20.4042 46.6987C20.5803 46.6704 20.6824 46.6561 20.7109 46.6561C20.875 46.6561 20.9572 46.7671 20.9572 46.988ZM18.3376 45.049C18.3434 44.9071 18.3103 44.8131 18.2394 44.7683C18.1685 44.7229 18.057 44.7139 17.9038 44.7424C16.5371 44.9863 15.8537 45.4316 15.8537 46.0779C15.8537 46.73 16.2081 47.056 16.9169 47.056C17.2005 47.056 17.4929 47.0023 17.7928 46.8948C18.1449 46.7696 18.3204 46.6196 18.3204 46.4435L18.3376 45.049ZM27.2809 46.0095C27.2809 46.6106 27.0492 47.0887 26.5875 47.4429C26.1254 47.7974 25.4947 47.9745 24.6949 47.9745C24.1621 47.9745 23.6287 47.9179 23.0959 47.8044C22.6363 47.7023 22.3699 47.6089 22.2962 47.5239C22.2507 47.4441 22.2282 47.0561 22.2282 46.3584C22.2282 46.0579 22.2962 45.9018 22.4325 45.8907C22.5685 45.8735 22.6849 45.9475 22.7812 46.1116C23.2063 46.8546 23.8926 47.2262 24.8396 47.2262C25.6387 47.2262 26.0386 46.948 26.0386 46.3922C26.0386 46.1488 25.9482 45.9444 25.7664 45.7801C25.5678 45.5929 25.1828 45.3745 24.6098 45.125C23.7817 44.7567 23.2288 44.4335 22.9511 44.1553C22.6504 43.8606 22.5003 43.4637 22.5003 42.9645C22.5003 42.3518 22.7357 41.8759 23.2063 41.5357C23.6428 41.2065 24.227 41.0424 24.9582 41.0424C25.4178 41.0424 25.8373 41.0789 26.2176 41.1529C26.6258 41.2267 26.8384 41.3171 26.8555 41.4251C26.9004 41.7423 26.9944 42.2019 27.1362 42.8032C27.1533 42.8765 27.0735 42.9362 26.8981 42.9815C26.7108 43.0212 26.5862 42.9898 26.5236 42.8882C26.0758 42.1563 25.5089 41.7907 24.8224 41.7907C24.0457 41.7907 23.6571 42.0402 23.6571 42.5392C23.6571 42.8172 23.7622 43.0381 23.9718 43.2024C24.1592 43.3442 24.5985 43.5657 25.2903 43.8664C26.0161 44.1782 26.5094 44.4589 26.7706 44.7082C27.1108 45.0312 27.2809 45.4654 27.2809 46.0095ZM37.2875 47.4981C37.2875 47.6965 37.154 47.8015 36.8876 47.8128C36.4906 47.8186 35.9714 47.8469 35.3312 47.8978C35.0134 47.9604 34.7866 47.9209 34.6507 47.779C33.7546 46.8151 32.9945 45.8056 32.3707 44.7507C32.3199 44.6602 32.2548 44.6148 32.1752 44.6148C32.0789 44.6148 31.9118 44.6999 31.6737 44.8702C31.4067 45.0172 31.2738 45.2273 31.2738 45.499C31.2738 45.6921 31.2791 45.9698 31.2909 46.3332C31.3023 46.6958 31.3926 46.9337 31.5627 47.0472C31.6819 47.127 31.9573 47.189 32.3877 47.2346C32.6543 47.2687 32.7878 47.3679 32.7878 47.5322C32.7878 47.6628 32.7665 47.7437 32.7239 47.7744C32.6816 47.8056 32.5692 47.8127 32.3877 47.7957C31.8208 47.7449 30.8627 47.7732 29.5131 47.8807C29.1729 47.909 28.9885 47.8664 28.9602 47.7531C28.949 47.7137 28.943 47.6568 28.943 47.583C28.943 47.4076 29.1162 47.274 29.4624 47.1838C29.7741 47.1038 29.93 46.7382 29.93 46.0862V38.652C29.93 38.1872 29.8847 37.8641 29.7936 37.6827C29.669 37.45 29.4078 37.2685 29.011 37.1381C28.8242 37.0761 28.7304 36.9881 28.7304 36.8746C28.7304 36.7097 28.8639 36.5822 29.1302 36.4919C29.5588 36.3485 29.9675 36.1513 30.3463 35.9048C30.6584 35.701 30.8514 35.5987 30.9247 35.5987C31.1575 35.5987 31.2738 35.7458 31.2738 36.0412C31.2738 36.0011 31.2709 36.2822 31.2649 36.883C31.2588 37.4388 31.2561 37.9946 31.2567 38.5504L31.2738 43.8747C31.2738 44.0224 31.3134 44.0956 31.3926 44.0956C31.4776 44.0956 31.6082 44.0224 31.7842 43.8747C32.2548 43.506 32.8332 43.0241 33.519 42.4287C33.6554 42.2871 33.7233 42.1735 33.7233 42.0885C33.7233 41.9356 33.4936 41.8273 33.0346 41.7655C32.8362 41.7423 32.7423 41.632 32.7534 41.4334C32.7706 41.235 32.8699 41.1499 33.0511 41.1782C33.4599 41.2351 34.0553 41.2664 34.8373 41.2722C35.382 41.2775 35.9235 41.2805 36.4623 41.2805C36.6377 41.2864 36.7258 41.391 36.7258 41.5954C36.7258 41.7879 36.5869 41.893 36.3093 41.9102C35.8722 41.9267 35.4611 42.0259 35.076 42.2078C34.5372 42.4512 33.9614 42.8794 33.3489 43.492C33.304 43.5262 33.2809 43.5686 33.2809 43.6195C33.2809 43.6988 33.3772 43.889 33.5704 44.1895C34.2791 45.267 34.9484 46.0804 35.5775 46.6307C35.9803 46.9765 36.3571 47.1494 36.7086 47.1494C36.9698 47.1494 37.1314 47.1677 37.1934 47.2048C37.2562 47.2417 37.2875 47.3396 37.2875 47.4981Z" fill="white"/>
</g>
<defs>
<clipPath id="clip0_64_325">
<rect width="48" height="48" fill="white"/>
</clipPath>
</defs>
</svg>
