<svg width="48" height="48" viewBox="0 0 48 48" fill="none" xmlns="http://www.w3.org/2000/svg">
<path d="M20.44 24.3C20.44 24.3 19.44 24.9 21.17 25.11C23.0326 25.3657 24.9261 25.2845 26.76 24.87C27.2313 25.1528 27.7265 25.3937 28.24 25.59C22.96 27.86 16.29 25.46 20.44 24.3ZM19.79 21.35C19.79 21.35 18.64 22.21 20.4 22.35C22.806 22.6363 25.243 22.518 27.61 22C27.929 22.301 28.3069 22.5325 28.72 22.68C22.34 24.55 15.23 22.83 19.79 21.31V21.35ZM25.23 16.34C25.3986 16.5478 25.5238 16.7874 25.5981 17.0445C25.6724 17.3017 25.6944 17.5711 25.6627 17.8369C25.631 18.1026 25.5463 18.3593 25.4135 18.5918C25.2808 18.8242 25.1028 19.0276 24.89 19.19C24.89 19.19 28.19 17.48 26.68 15.35C25.17 13.22 24.17 12.35 30.05 8.95996C30.05 8.95996 20.82 11.26 25.23 16.34Z" fill="white"/>
<path d="M32.21 26.49C32.21 26.49 32.98 27.12 31.37 27.6C28.37 28.53 18.69 28.8 16.01 27.6C15.01 27.18 16.86 26.6 17.42 26.4799C17.7243 26.4052 18.0366 26.3682 18.35 26.37C17.28 25.62 11.44 27.85 15.35 28.49C26.11 30.24 34.97 27.7099 32.17 26.49H32.21ZM20.93 18.29C20.93 18.29 16 19.4599 19.2 19.8799C21.3578 20.0488 23.5263 20.0254 25.68 19.8099C27.68 19.6399 29.75 19.27 29.75 19.27C29.3202 19.4575 28.9056 19.6782 28.51 19.93C23.51 21.24 13.92 20.63 16.69 19.3C18.0027 18.6316 19.4569 18.2886 20.93 18.3V18.29ZM29.73 23.2099C34.79 20.5799 32.45 18.05 30.81 18.39C30.6163 18.4291 30.4258 18.4826 30.24 18.55C30.3424 18.3927 30.4934 18.2733 30.67 18.21C33.9 17.08 36.38 21.5599 29.67 23.34C29.7087 23.3011 29.7423 23.2574 29.77 23.2099H29.73ZM26.68 3.44995C26.68 3.44995 29.48 6.24995 24.02 10.56C19.64 14 23 16 24 18.24C21.44 15.94 19.57 13.91 20.82 12.02C22.67 9.24995 27.82 7.89995 26.66 3.44995H26.68Z" fill="white"/>
<path d="M21.43 30.3301C26.29 30.6401 33.7499 30.1601 33.9199 27.8601C33.9199 27.8601 33.58 28.7301 29.92 29.4201C25.8576 30.1174 21.7119 30.1815 17.63 29.6101C17.63 29.6101 18.25 30.1301 21.44 30.3301H21.43ZM33.7 34.4501H33.5499V34.3701H34V34.4501H33.7999V34.8701H33.7V34.4501ZM34.49 34.4501L34.3499 34.8501H34.2799L34.13 34.4501V34.8501H34V34.3501H34.15L34.2799 34.7001L34.4199 34.3501H34.56V34.8501H34.4599V34.4501H34.49ZM20.64 39.1101C20.2672 39.4727 19.7786 39.6922 19.26 39.7301C19.124 39.7504 18.9851 39.7385 18.8545 39.6954C18.724 39.6523 18.6053 39.5792 18.5081 39.482C18.4109 39.3847 18.3378 39.2661 18.2947 39.1355C18.2516 39.0049 18.2397 38.8661 18.26 38.7301C18.26 38.0901 18.62 37.6201 20.06 37.6201H20.6V39.0801L20.64 39.1101ZM21.9 40.5401V36.1201C21.9 35.0001 21.26 34.2501 19.71 34.2501C18.8994 34.2523 18.0985 34.4261 17.36 34.7601L17.55 35.5401C18.1278 35.316 18.7403 35.1942 19.36 35.1801C20.25 35.1801 20.64 35.5401 20.64 36.2901V36.8401H20.19C18 36.8401 17 37.6901 17 39.0001C17 40.0901 17.65 40.7101 18.86 40.7101C19.5737 40.698 20.2562 40.4157 20.77 39.9201L20.87 40.5901L21.9 40.5401ZM26.12 40.5401H24.54L22.64 34.3601H24L25.18 38.1601L25.44 39.3001C26.0277 37.7029 26.4401 36.0465 26.67 34.3601H28C27.6308 36.4934 26.9888 38.5705 26.09 40.5401H26.12ZM32.1699 39.1101C31.7972 39.4727 31.3086 39.6922 30.79 39.7301C30.6574 39.744 30.5234 39.7272 30.3983 39.6811C30.2733 39.6349 30.1605 39.5607 30.0687 39.464C29.9769 39.3674 29.9085 39.251 29.8689 39.1237C29.8292 38.9965 29.8193 38.8618 29.84 38.7301C29.84 38.0901 30.2 37.6201 31.63 37.6201H32.1699V39.0801V39.1101ZM33.43 40.5401V36.1201C33.43 35.0001 32.79 34.2501 31.24 34.2501C30.4294 34.2523 29.6285 34.4261 28.89 34.7601L29.08 35.5401C29.6578 35.316 30.2703 35.1942 30.8899 35.1801C31.7799 35.1801 32.1699 35.5401 32.1699 36.2901V36.8401H31.72C29.55 36.8401 28.57 37.6901 28.57 38.9501C28.57 40.0401 29.22 40.6601 30.43 40.6601C31.1437 40.648 31.8262 40.3657 32.34 39.8701L32.4399 40.5401H33.43ZM15.65 41.5901C15.2523 42.1317 14.7022 42.5426 14.07 42.7701L13.45 42.0001C13.9012 41.7775 14.2793 41.4305 14.54 41.0001C14.7554 40.4295 14.8375 39.8173 14.78 39.2101V32.2101H16.12V39.1601C16.2329 40.0126 16.068 40.8787 15.65 41.6301V41.5901Z" fill="white"/>
</svg>
