<svg width="48" height="48" viewBox="0 0 48 48" fill="none" xmlns="http://www.w3.org/2000/svg">
<path d="M6.79999 6.80005V41.2001H41.2V6.80005H6.79999ZM25.53 32.59C25.53 36.82 23.48 38.23 20.44 38.23C19.6455 38.229 18.856 38.1041 18.1 37.8601L18.44 35.6C18.9934 35.7897 19.575 35.8843 20.16 35.8801C21.76 35.8801 22.73 35.16 22.73 32.5V22.66H25.53V32.59ZM32.05 38.21C30.6099 38.2127 29.1901 37.8698 27.91 37.21L28.53 34.89C29.6603 35.5275 30.9324 35.8713 32.23 35.89C34 35.9 35 35.0601 35 33.8101C35 32.5601 34.24 32 32.3 31.2701C29.77 30.3701 28.16 29.01 28.16 26.82C28.16 24.31 30.25 22.42 33.58 22.42C34.846 22.3815 36.1034 22.6419 37.25 23.18L36.58 25.43C35.6325 24.9482 34.583 24.7013 33.52 24.71C31.74 24.71 30.99 25.65 30.99 26.55C30.99 27.73 31.88 28.28 33.92 29.06C36.58 30.06 37.86 31.41 37.86 33.6101C37.86 36.08 36 38.21 32.05 38.21Z" fill="white"/>
</svg>
