<svg width="35" height="24" viewBox="0 0 35 24" fill="none" xmlns="http://www.w3.org/2000/svg">
<g clip-path="url(#clip0_64_447)">
<path d="M34.959 11.235H34.904C35.196 11.491 35.123 11.6736 34.685 11.783L29.919 13.042L34.245 18.904C34.391 19.1233 34.4277 19.2793 34.355 19.372C34.2 19.516 34.018 19.634 33.819 19.718L33.807 19.723L28.22 21.753C24.6773 22.995 22.7417 23.671 22.413 23.781H22.358C22.082 23.919 21.756 24 21.412 24C21.398 24 21.384 24 21.371 24H21.373C21.02 23.921 20.729 23.701 20.558 23.404L20.555 23.398C20.1897 22.9233 18.8567 20.6043 16.556 16.441C12.646 17.463 10.198 18.084 9.21199 18.304C9.06499 18.361 8.89499 18.394 8.71699 18.394C8.11999 18.394 7.60999 18.021 7.40699 17.495L7.40399 17.485L5.97899 14.358C2.29033 6.43264 0.354659 2.23264 0.171993 1.75798C-0.156674 1.02731 -0.0106739 0.62531 0.609993 0.551977L1.32199 0.496977C5.12399 0.205643 7.24233 0.0416432 7.67699 0.00497656C7.70999 0.00197656 7.74899 0.000976562 7.78799 0.000976562C7.99499 0.000976562 8.19199 0.0429766 8.37199 0.118977L8.36199 0.114977C8.52999 0.229977 8.66699 0.376977 8.76899 0.546977L8.77199 0.552977L17.264 14.743L27.892 12.223L24.384 7.23698C24.128 6.87164 24.2923 6.65264 24.877 6.57998L29.808 5.76098C29.875 5.74598 29.952 5.73698 30.032 5.73698C30.148 5.73698 30.26 5.75598 30.364 5.78998L30.356 5.78798C30.576 5.90298 30.76 6.06098 30.901 6.25198L30.904 6.25598L33.04 8.88598C34.2087 10.3426 34.848 11.126 34.958 11.236L34.959 11.235ZM15.62 15.179C15.8027 15.1423 15.821 15.0326 15.675 14.85L7.72599 1.09898C7.68699 1.03198 7.61599 0.986977 7.53399 0.986977C7.52499 0.986977 7.51499 0.987977 7.50599 0.988977L1.69999 1.48198C1.66333 1.48198 1.64499 1.51864 1.64499 1.59198C1.64599 1.67198 1.66599 1.74698 1.70099 1.81298L1.69999 1.80998L8.87699 16.602C8.91366 16.6753 8.95033 16.712 8.98699 16.712H9.26099L13.15 15.777C14.7567 15.3776 15.58 15.179 15.62 15.179ZM32.384 18.302L28.876 13.481C28.832 13.399 28.766 13.334 28.687 13.29L28.685 13.289C28.661 13.284 28.633 13.281 28.605 13.281C28.545 13.281 28.487 13.294 28.436 13.317L28.439 13.316L18.032 16.056L21.484 21.863C21.594 22.0456 21.6853 22.1463 21.758 22.165C21.785 22.17 21.816 22.173 21.848 22.173C21.914 22.173 21.977 22.16 22.035 22.137L22.032 22.138L32.276 18.63C32.422 18.5933 32.495 18.5566 32.495 18.52C32.49 18.468 32.47 18.421 32.44 18.383V18.384L32.384 18.302ZM33.041 10.961C33.333 10.8876 33.4427 10.7963 33.37 10.687C31.5773 8.45898 30.573 7.19898 30.357 6.90698C30.293 6.77198 30.158 6.67898 30.001 6.67898C29.972 6.67898 29.943 6.68198 29.916 6.68798H29.919L25.975 7.39998C25.829 7.43664 25.8107 7.52798 25.92 7.67398L29.043 11.947C30.3937 11.6183 31.7267 11.2893 33.042 10.96L33.041 10.961Z" fill="white"/>
</g>
<defs>
<clipPath id="clip0_64_447">
<rect width="35" height="24" fill="white"/>
</clipPath>
</defs>
</svg>
