<svg width="60" height="60" viewBox="0 0 60 60" fill="none" xmlns="http://www.w3.org/2000/svg">
<path d="M48.545 42.0475C48.3686 42.0479 48.194 42.011 48.0329 41.9391C47.8717 41.8673 47.7276 41.7621 47.61 41.6306C47.4924 41.4991 47.404 41.3441 47.3505 41.176C47.2971 41.0078 47.2799 40.8302 47.3 40.655C48.19 32.7975 43.96 27.2475 40.8725 23.1925C39.44 21.31 38.2025 19.6849 37.7125 18.165C37.3625 17.075 37.1625 15.71 36.9325 14.125C36.0325 7.90245 34.9025 3.13995 29.375 3.13995C26.835 3.13995 24.9125 3.90495 23.4925 5.47745C21.23 7.98745 20.3175 12.635 20.93 18.5625C21.365 22.7775 19.7375 25.28 18.0175 27.93C16.1675 30.7825 14.25 33.7299 14.25 39.615C14.25 39.9465 14.1183 40.2644 13.8839 40.4988C13.6495 40.7333 13.3315 40.865 13 40.865C12.6685 40.865 12.3505 40.7333 12.1161 40.4988C11.8817 40.2644 11.75 39.9465 11.75 39.615C11.75 32.9925 14.0625 29.43 15.9225 26.5675C17.5225 24.1025 18.7875 22.1525 18.445 18.82C17.96 14.12 18.12 7.69995 21.6375 3.79995C23.53 1.70245 26.135 0.637451 29.375 0.637451C37.5075 0.637451 38.6525 8.53495 39.41 13.7625C39.615 15.1725 39.8075 16.51 40.09 17.395C40.45 18.5075 41.5675 19.975 42.86 21.675C46.205 26.0675 50.785 32.08 49.785 40.935C49.7512 41.2404 49.6061 41.5227 49.3773 41.7279C49.1486 41.9331 48.8523 42.0469 48.545 42.0475Z" fill="white"/>
<path d="M34.2573 18.2024C34.061 18.2026 33.8675 18.1564 33.6925 18.0677C33.5174 17.979 33.3657 17.8503 33.2498 17.692C33.1339 17.5336 33.0569 17.3502 33.0252 17.1565C32.9935 16.9629 33.0079 16.7644 33.0673 16.5774C33.9873 13.6599 34.0023 11.1849 33.1073 9.95991C32.6573 9.34491 31.9773 9.04241 31.0223 9.03741C30.6648 8.96741 30.2723 9.16991 29.9873 9.46991C29.3148 10.1774 29.0348 11.5774 28.9298 12.7399C28.9673 13.6624 28.9048 14.3649 28.8848 14.5474C28.8617 14.8631 28.7163 15.1573 28.4795 15.3674C28.2428 15.5775 27.9335 15.6869 27.6173 15.6724C27.3028 15.6672 27.0019 15.5432 26.7751 15.3252C26.5483 15.1072 26.4124 14.8115 26.3948 14.4974C26.3618 13.88 26.371 13.2611 26.4223 12.6449C26.3548 11.4024 26.0798 10.0474 25.4423 9.41241C25.2398 9.20991 24.9123 8.98991 24.2448 9.04991C21.3773 9.33491 21.7923 15.6549 21.7973 15.7174C21.8257 16.0476 21.7218 16.3755 21.5085 16.6291C21.2952 16.8828 20.9899 17.0413 20.6598 17.0699C20.3303 17.095 20.0042 16.9899 19.7513 16.7773C19.4984 16.5646 19.339 16.2613 19.3073 15.9324C19.0223 12.6549 19.6948 6.99241 23.9973 6.56241C25.2673 6.43241 26.3798 6.80991 27.2123 7.64491C27.4073 7.83991 27.5823 8.05491 27.7373 8.28491C27.8698 8.09741 28.0098 7.91991 28.1673 7.75241C28.5313 7.36299 28.9726 7.0538 29.4629 6.84459C29.9532 6.63538 30.4817 6.53076 31.0148 6.53741H31.0348C32.7898 6.54741 34.2048 7.21991 35.1298 8.48491C36.5323 10.4099 36.6448 13.5474 35.4523 17.3299C35.3709 17.583 35.2114 17.8038 34.9967 17.9605C34.782 18.1173 34.5231 18.202 34.2573 18.2024Z" fill="white"/>
<path d="M26.5924 23.44C23.3749 23.44 20.0949 18.61 19.4649 17.63C19.2749 17.3375 19.2149 16.9725 19.3074 16.635C19.3999 16.2975 19.6249 16.01 19.9374 15.8475C28.6074 11.315 34.3399 16.25 34.5799 16.4625C34.7048 16.5732 34.8062 16.7077 34.8782 16.8582C34.9501 17.0088 34.9912 17.1722 34.9989 17.3389C35.0066 17.5055 34.9808 17.672 34.923 17.8285C34.8652 17.9851 34.7765 18.1284 34.6624 18.25C33.8749 19.0975 29.7824 23.32 26.7149 23.44H26.5924ZM22.3974 17.4475C23.6924 19.14 25.4799 20.9375 26.5824 20.9375L26.6199 20.935C27.8549 20.8875 30.1024 19.1825 31.7949 17.585C30.1624 16.71 26.8574 15.5975 22.3974 17.4475Z" fill="white"/>
<path d="M24.3752 16.4475C24.0437 16.4475 23.7258 16.3158 23.4913 16.0814C23.2569 15.847 23.1252 15.529 23.1252 15.1975V13.125C23.1252 12.7935 23.2569 12.4755 23.4913 12.2411C23.7258 12.0067 24.0437 11.875 24.3752 11.875C24.7067 11.875 25.0247 12.0067 25.2591 12.2411C25.4935 12.4755 25.6252 12.7935 25.6252 13.125V15.1975C25.6252 15.529 25.4935 15.847 25.2591 16.0814C25.0247 16.3158 24.7067 16.4475 24.3752 16.4475ZM31.0277 17.1375C30.6962 17.1375 30.3783 17.0058 30.1438 16.7714C29.9094 16.537 29.7777 16.219 29.7777 15.8875V13.125C29.7777 12.7935 29.9094 12.4755 30.1438 12.2411C30.3783 12.0067 30.6962 11.875 31.0277 11.875C31.3592 11.875 31.6772 12.0067 31.9116 12.2411C32.146 12.4755 32.2777 12.7935 32.2777 13.125V15.8875C32.2777 16.58 31.7202 17.1375 31.0277 17.1375ZM17.0302 42.0475C16.719 42.047 16.4192 41.9303 16.1894 41.7204C15.9596 41.5105 15.8164 41.2224 15.7877 40.9125C14.9702 32.12 23.0252 21.07 23.3702 20.6025C23.4673 20.4704 23.5896 20.3588 23.7299 20.274C23.8703 20.1893 24.026 20.1331 24.1882 20.1087C24.3503 20.0843 24.5157 20.0922 24.6748 20.1319C24.8339 20.1716 24.9835 20.2423 25.1152 20.34C25.2479 20.4369 25.36 20.5592 25.4452 20.6997C25.5304 20.8402 25.587 20.9961 25.6116 21.1586C25.6363 21.321 25.6285 21.4867 25.5888 21.6462C25.5491 21.8056 25.4782 21.9556 25.3802 22.0875C25.3027 22.1925 17.5477 32.8375 18.2752 40.6825C18.2912 40.8556 18.2709 41.0302 18.2156 41.195C18.1603 41.3599 18.0712 41.5114 17.9541 41.6399C17.8369 41.7683 17.6942 41.8709 17.5351 41.9411C17.3761 42.0113 17.2041 42.0475 17.0302 42.0475ZM40.3127 42.0475H40.2652C39.9338 42.0345 39.6212 41.8906 39.3957 41.6473C39.1703 41.4041 39.0505 41.0814 39.0627 40.75C39.5077 28.6475 31.0002 20.255 30.9152 20.1725C30.6775 19.9418 30.5408 19.6262 30.5352 19.2949C30.5296 18.9637 30.6554 18.6437 30.8852 18.405C31.1163 18.1678 31.4317 18.0316 31.7628 18.026C32.0939 18.0204 32.4137 18.1458 32.6527 18.375C33.0377 18.7475 42.0452 27.64 41.5602 40.8425C41.5492 41.1659 41.4129 41.4724 41.1801 41.6973C40.9474 41.9221 40.6363 42.0477 40.3127 42.0475Z" fill="white"/>
<path d="M19.9349 57.82C18.3199 57.82 16.4749 57.4975 14.7249 57.195C13.5643 56.979 12.397 56.8006 11.2249 56.66C7.23988 56.235 4.84238 55.2075 4.09738 53.605C3.70488 52.7575 3.80488 51.82 4.38238 50.965C5.32738 49.565 5.06488 49.15 4.54238 48.3225C3.97988 47.4375 3.13738 46.1 4.33738 44.0525C5.29988 42.415 6.92988 42.4425 8.02488 42.4625C9.03488 42.4825 9.38238 42.4375 9.63238 42.1L9.78738 41.89C10.8299 40.4825 12.0124 38.8825 13.6799 38.815C14.2749 38.7875 15.1799 38.9725 16.0499 39.9725C18.2099 42.45 25.1999 50.85 24.4624 54.91C24.0474 57.1725 22.2274 57.82 19.9349 57.82ZM7.65238 44.9625C6.86738 44.9625 6.66238 45.0375 6.49738 45.32C6.06488 46.055 6.18988 46.2525 6.65488 46.99C7.31738 48.035 8.31238 49.6125 6.45238 52.365C6.42488 52.78 7.49238 53.7475 11.4874 54.175C12.6599 54.3 13.9124 54.5175 15.1524 54.7325C18.2424 55.2675 21.7449 55.8825 21.9999 54.465C22.3774 52.3925 18.2449 46.3 14.1624 41.6225C13.9449 41.3725 13.8099 41.3175 13.7774 41.3175C13.3074 41.3375 12.2874 42.72 11.7974 43.3825L11.6399 43.595C10.5874 45.0125 9.02738 44.99 7.97988 44.9675C7.85988 44.9625 7.75238 44.9625 7.65238 44.9625ZM40.7574 58.295C39.9149 58.295 39.0649 58.12 38.2099 57.71C35.5124 56.415 34.9649 51.2525 35.3174 47.225C35.5199 44.895 36.1924 40.8975 38.4124 40.275C38.7349 40.185 39.7149 39.9075 40.5374 40.4625C41.3274 41 41.4249 41.8925 41.4974 42.5475C41.5924 43.415 41.6449 43.4275 41.9249 43.485C42.3949 43.5925 43.2799 42.55 43.9074 41.795C44.9349 40.55 46.4874 38.67 48.4174 39.96C50.1249 41.0975 50.0199 42.715 49.9474 43.7825C49.8699 44.995 49.8399 45.45 51.6199 45.9725C53.2499 46.45 53.6524 47.515 53.7499 48.1075C54.1499 50.625 50.6649 53.3225 49.1474 54.365L48.6374 54.7175C46.0774 56.4825 43.4524 58.295 40.7574 58.295ZM39.2899 55.455C41.5774 56.555 44.3174 54.6625 47.2149 52.66L47.7299 52.3025C50.3324 50.515 51.3374 48.9175 51.2774 48.5C51.2774 48.525 51.1849 48.45 50.9149 48.37C47.2149 47.285 47.3624 44.99 47.4499 43.62C47.5174 42.5975 47.4899 42.3475 47.0274 42.04C46.8724 42.1275 46.2199 42.9175 45.8299 43.3875C44.7399 44.705 43.3724 46.35 41.4099 45.9325C39.2974 45.4925 39.1024 43.6875 39.0074 42.82C39.005 42.7992 39.0025 42.7783 38.9999 42.7575C38.4249 43.3875 37.5049 46.7125 37.7599 50.72C37.9449 53.57 38.6599 55.155 39.2899 55.455Z" fill="white"/>
<path d="M29.7523 54.8675C25.5698 54.8675 22.5873 53.635 22.4023 53.555C22.0976 53.426 21.8567 53.1813 21.7324 52.8747C21.6082 52.5681 21.6108 52.2247 21.7398 51.92C21.8029 51.7685 21.8953 51.631 22.0118 51.5153C22.1283 51.3997 22.2665 51.3082 22.4184 51.2462C22.5704 51.1841 22.7331 51.1528 22.8972 51.1538C23.0614 51.1549 23.2236 51.1884 23.3748 51.2525C23.4323 51.28 29.4348 53.73 36.0298 51.235C36.3327 51.1477 36.6574 51.1776 36.9393 51.3188C37.2212 51.46 37.4396 51.7021 37.5511 51.997C37.6626 52.2918 37.6591 52.6179 37.5412 52.9103C37.4233 53.2027 37.1996 53.44 36.9148 53.575C34.6253 54.4363 32.1984 54.8742 29.7523 54.8675Z" fill="white"/>
</svg>
