<svg width="59" height="50" viewBox="0 0 59 50" fill="none" xmlns="http://www.w3.org/2000/svg">
<path d="M31.6088 4.95434C31.5397 4.8347 31.4482 4.74984 31.3464 4.71108C31.2447 4.67232 31.1376 4.68151 31.0393 4.73742C30.9411 4.79332 30.8565 4.89329 30.7968 5.02397C30.7371 5.15466 30.7051 5.30983 30.7051 5.46879V44.5313C30.7051 44.7385 30.7594 44.9372 30.8561 45.0837C30.9528 45.2302 31.084 45.3125 31.2207 45.3125H53.7793C53.8784 45.3125 53.9753 45.2693 54.0586 45.188C54.1419 45.1067 54.2079 44.9908 54.2489 44.8541C54.2898 44.7175 54.3039 44.5658 54.2894 44.4173C54.275 44.2688 54.2326 44.1298 54.1674 44.0168L31.6088 4.95434ZM31.7363 43.75V7.54809L52.643 43.75H31.7363Z" fill="#00FFC2"/>
<path d="M27.3912 4.95434C27.4603 4.8347 27.5518 4.74984 27.6536 4.71108C27.7553 4.67232 27.8624 4.68151 27.9607 4.73742C28.0589 4.79332 28.1435 4.89329 28.2032 5.02397C28.2629 5.15466 28.2949 5.30983 28.2949 5.46879V44.5313C28.2949 44.7385 28.2406 44.9372 28.1439 45.0837C28.0472 45.2302 27.916 45.3125 27.7793 45.3125H5.2207C5.12164 45.3125 5.02468 45.2693 4.9414 45.188C4.85813 45.1067 4.79208 44.9908 4.75114 44.8541C4.71021 44.7175 4.69612 44.5658 4.71057 44.4173C4.72502 44.2688 4.7674 44.1298 4.83263 44.0168L27.3912 4.95434ZM27.2637 43.75V7.54809L6.35701 43.75H27.2637Z" fill="#00FFC2"/>
</svg>
