<svg width="48" height="48" viewBox="0 0 48 48" fill="none" xmlns="http://www.w3.org/2000/svg">
<g clip-path="url(#clip0_64_324)">
<path fill-rule="evenodd" clip-rule="evenodd" d="M44.6918 22.8248C44.6487 22.8334 44.6054 22.9285 44.6054 22.9804C44.5968 23.3265 44.5882 24.2436 44.5882 24.8664C44.5882 24.8838 44.614 24.9184 44.64 24.9184C44.7697 24.927 45.0812 24.9356 45.3494 24.9356C45.7214 24.9356 45.9377 24.8838 46.0589 24.8319C46.3703 24.6761 46.5173 24.3387 46.5173 23.9666C46.5173 23.1276 45.9291 22.8074 45.0552 22.8074C44.9947 22.7988 44.8218 22.7988 44.6918 22.8248ZM46.924 26.6919C46.924 25.8354 46.2924 25.3596 45.1505 25.3596C45.0985 25.3596 44.7352 25.3509 44.6486 25.3682C44.6227 25.3769 44.5882 25.3943 44.5882 25.4202C44.5882 26.0344 44.5794 27.0121 44.6054 27.3927C44.6227 27.5571 44.7439 27.7907 44.891 27.8599C45.0466 27.9464 45.4013 27.9637 45.6436 27.9637C46.327 27.9637 46.924 27.583 46.924 26.6919ZM42.9271 22.349C43.0135 22.349 43.273 22.3748 43.9392 22.3748C44.5708 22.3748 45.0726 22.3576 45.6868 22.3576C46.4394 22.3576 47.4776 22.6257 47.4776 23.7504C47.4776 24.3041 47.0883 24.7454 46.5779 24.9617C46.552 24.9703 46.552 24.9876 46.5779 24.9962C47.3046 25.178 47.9449 25.6278 47.9449 26.4756C47.9449 27.3062 47.4258 27.8339 46.6731 28.1627C46.2145 28.3616 45.6436 28.4308 45.0639 28.4308C44.6227 28.4308 43.4375 28.379 42.78 28.3963C42.7108 28.3703 42.8406 28.0588 42.901 28.007C43.0568 27.9983 43.1779 27.9896 43.3423 27.9377C43.5759 27.8772 43.6018 27.8079 43.6364 27.4533C43.6537 27.1505 43.6538 26.0776 43.6538 25.3163C43.6538 24.2695 43.6625 23.5601 43.6538 23.2141C43.6451 22.946 43.55 22.8593 43.3597 22.8074C43.2125 22.7815 42.9703 22.7468 42.7713 22.721C42.728 22.6777 42.8751 22.3835 42.9271 22.349ZM37.9351 27.7301C38.1428 27.8944 38.5494 27.9636 38.9128 27.9636C39.38 27.9636 39.8471 27.8772 40.297 27.4704C40.7556 27.0553 41.0756 26.4151 41.0756 25.3943C41.0756 24.4165 40.7036 23.6206 39.9423 23.1535C39.5097 22.8852 38.956 22.7729 38.3158 22.7729C38.1255 22.7729 37.9438 22.7815 37.8314 22.8334C37.8053 22.8507 37.7449 22.9285 37.7449 22.9718C37.7275 23.1448 37.7275 24.4771 37.7275 25.2558C37.7275 26.0603 37.7275 27.1851 37.7449 27.3148C37.7449 27.4447 37.8053 27.6436 37.9352 27.7301H37.9351ZM35.9712 22.3489C36.1357 22.3489 36.7672 22.3748 37.07 22.3748C37.6151 22.3748 38.0044 22.349 39.0338 22.349C39.899 22.349 40.6257 22.5825 41.1448 23.0237C41.7763 23.5688 42.1052 24.3215 42.1052 25.2384C42.1052 26.5448 41.5082 27.2976 40.9112 27.7301C40.3144 28.1713 39.5357 28.4308 38.4283 28.4308C37.84 28.4308 36.8278 28.4136 35.9886 28.4048H35.9799C35.9367 28.327 36.0491 28.0242 36.1183 28.0156C36.3433 27.9896 36.4039 27.9809 36.5164 27.9378C36.698 27.8685 36.7327 27.7733 36.7586 27.4533C36.7845 26.8563 36.7759 26.1383 36.7759 25.325C36.7759 24.7454 36.7845 23.612 36.7672 23.2486C36.7413 22.9459 36.6115 22.868 36.3519 22.816C36.2222 22.7902 36.0491 22.7555 35.807 22.7296C35.7723 22.6689 35.928 22.4007 35.9712 22.3489Z" fill="white"/>
<path fill-rule="evenodd" clip-rule="evenodd" d="M25.5031 28.0673C25.2868 28.0414 25.1311 28.0069 24.9408 27.9203C24.9148 27.903 24.8715 27.8166 24.8715 27.7819C24.8542 27.4791 24.8542 26.6139 24.8542 26.0344C24.8542 25.5671 24.7764 25.1605 24.5774 24.8751C24.3438 24.5462 24.0064 24.356 23.5738 24.356C23.1932 24.356 22.6827 24.6155 22.2588 24.9788C22.2501 24.9875 22.1809 25.0481 22.1896 24.9529C22.1896 24.8577 22.2069 24.6674 22.2155 24.5376C22.2243 24.4164 22.155 24.356 22.155 24.356C21.8781 24.4943 21.0995 24.676 20.814 24.7019C20.6064 24.7453 20.5545 24.9442 20.7709 25.0134H20.7795C21.0129 25.0826 21.1687 25.1605 21.2898 25.2384C21.3763 25.3076 21.3677 25.4028 21.3677 25.4807C21.3763 26.1294 21.3763 27.1244 21.3504 27.6695C21.3418 27.8857 21.2812 27.9636 21.1254 27.9981L21.1428 27.9895C21.0216 28.0155 20.9265 28.0414 20.7794 28.0587C20.7274 28.1106 20.7274 28.3875 20.7794 28.4481C20.8745 28.4481 21.3763 28.4221 21.7917 28.4221C22.3626 28.4221 22.6568 28.4481 22.8038 28.4481C22.8644 28.3789 22.8817 28.1193 22.8471 28.0587C22.6827 28.0501 22.5616 28.0328 22.4492 27.9981C22.2934 27.9635 22.2501 27.8857 22.2414 27.7041C22.2243 27.2454 22.2243 26.2765 22.2243 25.6191C22.2243 25.4374 22.2761 25.3508 22.3279 25.2989C22.527 25.1259 22.8471 25.0048 23.1326 25.0048C23.4094 25.0048 23.591 25.0913 23.7295 25.2038C23.9198 25.3595 23.9804 25.5845 24.0064 25.7488C24.0496 26.1208 24.0323 26.8562 24.0323 27.4964C24.0323 27.8424 24.0064 27.929 23.8767 27.9722C23.816 27.9981 23.6603 28.0328 23.4786 28.05C23.4181 28.1106 23.4354 28.3789 23.4786 28.4394C23.7295 28.4394 24.0237 28.4135 24.4563 28.4135C24.9926 28.4135 25.3387 28.4394 25.4772 28.4394C25.5203 28.3875 25.5377 28.1366 25.5031 28.0673ZM27.8995 24.7626C27.4411 24.7626 27.1555 25.1173 27.1555 25.6709C27.1555 26.2333 27.4064 26.8821 28.1158 26.8821C28.2369 26.8821 28.4619 26.8302 28.5656 26.7091C28.73 26.5535 28.8425 26.2419 28.8425 25.9131C28.8425 25.1951 28.4878 24.7626 27.8995 24.7626ZM27.8389 28.5864C27.666 28.5864 27.5448 28.6384 27.4669 28.6817C27.1036 28.9151 26.9392 29.1401 26.9392 29.4084C26.9392 29.6592 27.0344 29.8581 27.242 30.0312C27.4929 30.2475 27.8389 30.3514 28.2801 30.3514C29.1626 30.3514 29.5519 29.8755 29.5519 29.4084C29.5519 29.0796 29.3875 28.8633 29.0502 28.7422C28.8079 28.6384 28.3668 28.5864 27.8389 28.5864ZM27.8995 30.8359C27.3718 30.8359 26.9911 30.7234 26.6624 30.4725C26.3422 30.2302 26.2039 29.8669 26.2039 29.616C26.2039 29.5468 26.2212 29.3564 26.3769 29.1834C26.472 29.0796 26.6797 28.8806 27.1729 28.5432C27.1901 28.5346 27.1987 28.526 27.1987 28.5085C27.1987 28.4913 27.1814 28.4739 27.1641 28.4654C26.7575 28.3097 26.6364 28.0587 26.6017 27.9203V27.903C26.5932 27.8511 26.5759 27.7992 26.6538 27.7473C26.7143 27.7041 26.8009 27.6521 26.8959 27.5916C27.043 27.505 27.1987 27.4099 27.2939 27.332C27.3112 27.3147 27.3112 27.2975 27.3112 27.2801C27.3112 27.2628 27.2939 27.2454 27.2765 27.2369C26.6711 27.0379 26.3683 26.588 26.3683 25.9131C26.3683 25.472 26.5672 25.074 26.9219 24.8231C27.1641 24.6328 27.7698 24.3992 28.1677 24.3992H28.1937C28.6003 24.4078 28.8252 24.4943 29.1453 24.6068C29.3183 24.6674 29.4828 24.6933 29.7078 24.6933C30.0451 24.6933 30.1922 24.5895 30.3132 24.4685C30.3219 24.4857 30.3393 24.529 30.3479 24.6414C30.3565 24.7539 30.3219 24.9183 30.2354 25.0394C30.1662 25.1346 30.0105 25.2038 29.8548 25.2038H29.8114C29.6557 25.1865 29.5864 25.1691 29.5864 25.1691L29.5519 25.1865C29.5433 25.2038 29.5519 25.2211 29.5606 25.2471L29.5693 25.2644C29.5865 25.3422 29.6211 25.5757 29.6211 25.6364C29.6211 26.3458 29.3357 26.6571 29.0329 26.8908C28.7387 27.1071 28.4014 27.2454 28.0206 27.2801C28.012 27.2801 27.9775 27.2801 27.8995 27.2887C27.8563 27.2887 27.7957 27.2975 27.787 27.2975H27.7784C27.7092 27.3147 27.5362 27.4012 27.5362 27.5482C27.5362 27.678 27.614 27.8338 27.986 27.8598C28.0639 27.8684 28.1417 27.8684 28.2283 27.8771C28.7214 27.9116 29.3357 27.9549 29.6211 28.0501C30.0191 28.1971 30.27 28.5518 30.27 28.9758C30.27 29.6161 29.8115 30.213 29.0502 30.5849C28.6782 30.7493 28.3061 30.8359 27.8995 30.8359ZM32.8308 24.8059C32.6492 24.8059 32.4847 24.849 32.3636 24.9355C32.0263 25.1432 31.8532 25.5585 31.8532 26.164C31.8532 27.2975 32.4242 28.0934 33.2374 28.0934C33.4797 28.0934 33.67 28.0241 33.8344 27.8857C34.0852 27.678 34.2151 27.2628 34.2151 26.6831C34.2151 25.5585 33.6527 24.8058 32.8309 24.8058L32.8308 24.8059ZM32.9866 28.5086C31.5158 28.5086 30.9881 27.4272 30.9881 26.415C30.9881 25.7056 31.2736 25.1605 31.8445 24.7712C32.2512 24.5203 32.7357 24.3819 33.1683 24.3819C34.2929 24.3819 35.0802 25.1865 35.0802 26.3458C35.0802 27.133 34.7688 27.7559 34.1718 28.1366C33.8863 28.3269 33.3932 28.5086 32.9865 28.5086H32.9866ZM17.5698 24.8058C17.3881 24.8058 17.2237 24.849 17.1025 24.9355C16.7652 25.1432 16.5921 25.5585 16.5921 26.164C16.5921 27.2975 17.1631 28.0934 17.9764 28.0934C18.2186 28.0934 18.4089 28.0241 18.5734 27.8857C18.8241 27.678 18.954 27.2628 18.954 26.6831C18.954 25.5585 18.4003 24.8058 17.5698 24.8058ZM17.7255 28.5086C16.2547 28.5086 15.727 27.4272 15.727 26.415C15.727 25.7056 16.0125 25.1605 16.5834 24.7712C16.9901 24.5203 17.4746 24.3819 17.9072 24.3819C19.0319 24.3819 19.8191 25.1865 19.8191 26.3458C19.8191 27.133 19.5077 27.7559 18.9107 28.1366C18.6338 28.3269 18.1407 28.5086 17.7255 28.5086ZM7.83692 28.4221C7.81957 28.3962 7.80223 28.3183 7.81095 28.2231C7.81095 28.1539 7.82829 28.1106 7.83692 28.0934C8.0186 28.0673 8.11376 28.0414 8.21754 28.0155C8.3906 27.9722 8.45979 27.8771 8.46842 27.6608C8.49448 27.1417 8.49448 26.1554 8.48576 25.472V25.4546C8.48576 25.3768 8.48576 25.2816 8.3906 25.2124C8.25214 25.1259 8.08779 25.0481 7.87151 24.9874C7.7937 24.9616 7.74176 24.9183 7.75038 24.8664C7.75038 24.8145 7.80232 24.7539 7.91482 24.7366C8.20029 24.7106 8.9442 24.529 9.23839 24.3992C9.25573 24.4164 9.2817 24.4685 9.2817 24.5376L9.27307 24.6327C9.26435 24.728 9.25573 24.8405 9.25573 24.9529C9.25573 24.9875 9.29042 25.0134 9.32492 25.0134C9.34226 25.0134 9.3596 25.0048 9.37685 24.9961C9.93054 24.5635 10.4323 24.4078 10.6918 24.4078C11.1158 24.4078 11.4446 24.6068 11.6955 25.0221C11.7127 25.0481 11.7301 25.0567 11.756 25.0567C11.7733 25.0567 11.7992 25.0481 11.8079 25.0308C12.3184 24.6414 12.8288 24.4078 13.1661 24.4078C13.9707 24.4078 14.4466 25.0048 14.4466 26.017C14.4466 26.3025 14.4466 26.6745 14.4379 27.012C14.4379 27.3147 14.4293 27.5916 14.4293 27.7906C14.4293 27.8337 14.4898 27.9722 14.5849 27.9981C14.7061 28.0587 14.8705 28.0847 15.0868 28.1193H15.0954C15.1128 28.1798 15.0782 28.4047 15.0436 28.4481C14.9916 28.4481 14.9137 28.4481 14.8273 28.4394C14.6083 28.428 14.389 28.4222 14.1697 28.4221C13.6334 28.4221 13.3565 28.4307 13.0882 28.4481C13.0711 28.3789 13.0624 28.1712 13.0882 28.1193C13.244 28.0934 13.3219 28.0673 13.4171 28.0415C13.5902 27.9895 13.6334 27.9116 13.6421 27.6867C13.6421 27.5224 13.6766 26.1208 13.6247 25.7834C13.5728 25.4374 13.3132 25.0308 12.7422 25.0308C12.5259 25.0308 12.1886 25.1173 11.8598 25.3681C11.8426 25.3854 11.8251 25.4286 11.8251 25.4546V25.4633C11.8598 25.6449 11.8598 25.8527 11.8598 26.1727V26.7351C11.8598 27.1244 11.8511 27.4878 11.8598 27.7645C11.8598 27.9549 11.9723 27.9981 12.0675 28.0328C12.1194 28.0414 12.1539 28.0501 12.1972 28.0587C12.275 28.0761 12.3529 28.0934 12.4741 28.1193C12.4914 28.154 12.4914 28.2664 12.4654 28.3615C12.4567 28.4135 12.4394 28.4393 12.4308 28.4481C12.1367 28.4394 11.8339 28.4307 11.3927 28.4307C11.2629 28.4307 11.0379 28.4394 10.8476 28.4394C10.6918 28.4394 10.5448 28.4481 10.4584 28.4481C10.4496 28.4307 10.4323 28.3702 10.4323 28.275C10.4323 28.1972 10.4496 28.1366 10.467 28.1193C10.5102 28.1106 10.5448 28.102 10.5881 28.102C10.6918 28.0847 10.7784 28.0673 10.8649 28.0501C11.012 28.0069 11.0639 27.929 11.0725 27.7386C11.0985 27.3061 11.1244 26.069 11.0639 25.7574C10.9601 25.2557 10.6746 25.0048 10.216 25.0048C9.94789 25.0048 9.61038 25.1346 9.33363 25.3423C9.29032 25.3768 9.25573 25.4632 9.25573 25.5411V26.0516C9.25573 26.6745 9.25573 27.4532 9.26435 27.7906C9.27307 27.8943 9.30757 28.0155 9.5066 28.0587C9.54992 28.0673 9.6191 28.0847 9.70564 28.0934L9.86126 28.1193C9.8787 28.1712 9.86998 28.3789 9.83539 28.4481C9.74885 28.4481 9.64507 28.4394 9.52385 28.4394C9.34226 28.4307 9.10863 28.4221 8.84914 28.4221C8.54632 28.4221 8.33004 28.4307 8.15698 28.4394C8.03585 28.4221 7.9407 28.4221 7.83692 28.4221Z" fill="white"/>
<path fill-rule="evenodd" clip-rule="evenodd" d="M3.28619 30.4985L2.93154 30.3773C2.93154 30.3773 2.97485 28.5692 2.32591 28.4395C1.89344 27.9376 2.39529 7.15701 3.95247 28.3702C3.95247 28.3702 3.41604 28.6383 3.32088 29.097C3.21701 29.5469 3.28619 30.4985 3.28619 30.4985Z" fill="white"/>
<path fill-rule="evenodd" clip-rule="evenodd" d="M3.28619 30.4985L2.93154 30.3773C2.93154 30.3773 2.97485 28.5692 2.32591 28.4395C1.89344 27.9376 2.39529 7.15701 3.95247 28.3702C3.95247 28.3702 3.41604 28.6383 3.32088 29.097C3.21701 29.5469 3.28619 30.4985 3.28619 30.4985Z" fill="#A6A385"/>
<path fill-rule="evenodd" clip-rule="evenodd" d="M3.47664 28.7509C3.47664 28.7509 6.58258 26.7091 5.85574 22.4612C5.15505 19.3728 3.50261 18.3606 3.32092 17.9712C3.12199 17.6944 2.93158 17.21 2.93158 17.21L3.06142 25.8006C3.06142 25.8094 2.7932 28.4307 3.47674 28.751" fill="white"/>
<path fill-rule="evenodd" clip-rule="evenodd" d="M3.47664 28.7509C3.47664 28.7509 6.58258 26.7091 5.85574 22.4612C5.15505 19.3728 3.50261 18.3606 3.32092 17.9712C3.12199 17.6944 2.93158 17.21 2.93158 17.21L3.06142 25.8006C3.06142 25.8094 2.7932 28.4307 3.47674 28.751" fill="#499D4A"/>
<path fill-rule="evenodd" clip-rule="evenodd" d="M2.74997 28.8633C2.74997 28.8633 -0.165652 26.8734 0.00741039 23.3697C0.171754 19.8659 2.23079 18.1443 2.62875 17.8329C2.88835 17.556 2.89697 17.4521 2.91432 17.1753C3.096 17.5646 3.06141 22.9977 3.08729 23.6379C3.1651 26.1035 2.94891 28.3962 2.74997 28.8633Z" fill="white"/>
<path fill-rule="evenodd" clip-rule="evenodd" d="M2.74997 28.8633C2.74997 28.8633 -0.165652 26.8734 0.00741039 23.3697C0.171754 19.8659 2.23079 18.1443 2.62875 17.8329C2.88835 17.556 2.89697 17.4521 2.91432 17.1753C3.096 17.5646 3.06141 22.9977 3.08729 23.6379C3.1651 26.1035 2.94891 28.3962 2.74997 28.8633Z" fill="#58AA50"/>
</g>
<defs>
<clipPath id="clip0_64_324">
<rect width="48" height="48" fill="white"/>
</clipPath>
</defs>
</svg>
