<svg width="48" height="48" viewBox="0 0 48 48" fill="none" xmlns="http://www.w3.org/2000/svg">
<path d="M14.32 34.4101H12.88C12.8267 31.9834 12.6867 29.7001 12.46 27.5601L10.27 34.4101H9.16L7 27.5601C6.84 29.6067 6.74 31.8901 6.7 34.4101H5.36C5.44 31.3501 5.65 28.4901 5.99 25.8101H7.78L9.85 32.1301L12 25.8101H13.71C14.0767 28.9434 14.2967 31.8101 14.37 34.4101M20.56 28.0701C20.2339 30.5065 19.4465 32.8584 18.24 35.0001C18.0053 35.4614 17.6575 35.8556 17.229 36.1459C16.8005 36.4363 16.3054 36.6131 15.79 36.6601C15.486 36.6462 15.1874 36.575 14.91 36.4501V35.6801C15.1096 35.697 15.3104 35.697 15.51 35.6801C15.8738 35.6936 16.2298 35.5725 16.51 35.3401C16.6579 35.2195 16.7763 35.0668 16.856 34.8934C16.9357 34.7201 16.9747 34.5308 16.97 34.3401C16.8997 33.8815 16.779 33.4321 16.61 33.0001L15 28.0701H16.42L17.55 31.7301C17.7604 32.2896 17.8688 32.8823 17.87 33.4801C18.5099 31.7327 18.9461 29.9174 19.17 28.0701H20.56ZM39.71 34.4101H35.63V25.8101H37V33.3501H39.71V34.4101Z" fill="white"/>
<path fill-rule="evenodd" clip-rule="evenodd" d="M34.56 34.6201L33 33.8401C33.1422 33.7229 33.2728 33.5923 33.39 33.4501C34.1277 32.4388 34.4821 31.1984 34.39 29.9501C34.39 27.1101 33.27 25.6801 31.04 25.6801C30.5582 25.6528 30.0766 25.737 29.6327 25.926C29.1887 26.1151 28.7943 26.4039 28.48 26.7701C27.743 27.7778 27.3886 29.0149 27.48 30.2601C27.3844 31.4363 27.6989 32.6094 28.37 33.5801C28.6786 33.9208 29.06 34.1877 29.4859 34.3608C29.9118 34.5339 30.3712 34.6089 30.83 34.5801C31.2119 34.5843 31.5924 34.5337 31.96 34.4301L34 35.5801L34.56 34.6201ZM29.44 32.6901C29.0274 31.8529 28.8445 30.9211 28.91 29.9901C28.91 27.8201 29.57 26.7401 30.91 26.7401C31.2089 26.7197 31.5077 26.7817 31.7739 26.9192C32.0401 27.0567 32.2636 27.2645 32.42 27.5201C32.8311 28.347 33.014 29.2688 32.95 30.1901C32.95 32.3701 32.29 33.4701 30.95 33.4701C30.6511 33.4904 30.3523 33.4284 30.0861 33.2909C29.8199 33.1534 29.5964 32.9456 29.44 32.6901Z" fill="white"/>
<path d="M26.86 32.0001C26.8689 32.3392 26.8017 32.6761 26.6632 32.9859C26.5248 33.2957 26.3186 33.5705 26.06 33.7901C25.4556 34.2831 24.6889 34.5328 23.91 34.4901C23.0342 34.4781 22.1829 34.199 21.47 33.6901L21.83 32.9501C22.3992 33.2602 23.0323 33.4347 23.68 33.4601C24.1128 33.4819 24.5409 33.3626 24.9 33.1201C25.0522 33.0033 25.1736 32.8512 25.2537 32.677C25.3339 32.5027 25.3704 32.3116 25.36 32.1201C25.36 31.6101 25.01 31.1701 24.36 30.8101L22.55 29.8101C22.2348 29.6224 21.9758 29.3536 21.7999 29.0317C21.624 28.7098 21.5377 28.3467 21.55 27.9801C21.5375 27.6617 21.5967 27.3446 21.723 27.0521C21.8493 26.7596 22.0397 26.4992 22.28 26.2901C22.8081 25.8485 23.4822 25.6202 24.17 25.6501C24.9422 25.6452 25.6994 25.864 26.35 26.2801L26.02 27.0201C25.4962 26.7917 24.9314 26.6726 24.36 26.6701C24.0003 26.6499 23.6453 26.76 23.36 26.9801C23.2412 27.0812 23.1457 27.2068 23.0801 27.3484C23.0145 27.49 22.9804 27.644 22.98 27.8001C22.98 28.3101 23.34 28.7501 23.98 29.1201C24.62 29.4901 25.83 30.1201 25.83 30.1201C26.1473 30.3028 26.4084 30.5692 26.5847 30.8901C26.7611 31.211 26.8459 31.5742 26.83 31.9401" fill="white"/>
<path fill-rule="evenodd" clip-rule="evenodd" d="M41.44 22.93C40.7603 22.8843 40.0787 22.9831 39.44 23.22C39.29 23.29 39.04 23.29 39.02 23.48C39 23.67 39.11 23.7 39.18 23.82C39.33 24.054 39.5117 24.2661 39.72 24.45C39.94 24.62 40.16 24.78 40.39 24.93C40.79 25.18 41.25 25.32 41.65 25.57L42.33 26.06C42.45 26.14 42.52 26.28 42.66 26.33C42.59 26.23 42.57 26.1 42.5 25.99C42.43 25.88 42.29 25.8 42.19 25.69C41.8781 25.3083 41.5146 24.9717 41.11 24.69C40.77 24.46 40.05 24.14 39.91 23.76C40.1552 23.7283 40.3965 23.6713 40.63 23.59C40.98 23.5 41.3 23.52 41.63 23.43L42.12 23.28V23.1C41.94 22.91 41.8 22.66 41.61 22.49C41.0716 22.0183 40.4965 21.5903 39.89 21.21C39.57 21 39.15 20.87 38.81 20.69C38.69 20.63 38.48 20.6 38.41 20.49C38.2355 20.2413 38.0912 19.9728 37.98 19.69C37.68 19.12 37.39 18.49 37.13 17.88C36.9757 17.477 36.7988 17.083 36.6 16.7C35.644 15.0672 34.2612 13.7258 32.6 12.82C32.1799 12.613 31.7318 12.4681 31.27 12.39H30.49C30.3174 12.2721 30.1536 12.1418 30 12C29.41 11.62 27.88 10.81 27.45 11.88C27.17 12.56 27.86 13.22 28.1 13.56C28.3037 13.8006 28.4813 14.0621 28.63 14.34C28.7 14.52 28.73 14.71 28.8 14.89C28.9486 15.3682 29.129 15.8359 29.34 16.29C29.4533 16.511 29.5802 16.7248 29.72 16.93C29.81 17.04 29.95 17.09 29.98 17.28C29.8704 17.53 29.7898 17.7917 29.74 18.06C29.3747 19.2173 29.4826 20.4721 30.04 21.55C30.21 21.81 30.61 22.38 31.14 22.16C31.67 21.94 31.5 21.38 31.63 20.87C31.63 20.74 31.63 20.66 31.71 20.57C31.85 20.86 32 21.14 32.13 21.43C32.5017 21.9634 32.9577 22.4329 33.48 22.82C33.73 23.01 33.93 23.33 34.24 23.44C34.18 23.35 34.08 23.31 34 23.23C33.8016 23.0402 33.6208 22.8326 33.46 22.61C33.0199 22.0144 32.6318 21.3821 32.3 20.72C32.13 20.4 31.99 20.04 31.85 19.72C31.79 19.6 31.79 19.41 31.68 19.35C31.4921 19.5652 31.3279 19.7999 31.19 20.05C31.0202 20.5572 30.9225 21.0857 30.9 21.62H30.85C30.52 21.54 30.41 21.2 30.28 20.91C29.9592 20.0157 29.9277 19.0432 30.19 18.13C30.26 17.92 30.57 17.23 30.45 17.02C30.33 16.81 30.18 16.71 30.06 16.56C29.9174 16.3479 29.7935 16.1237 29.69 15.89C29.44 15.31 29.32 14.67 29.05 14.08C28.8955 13.8016 28.7217 13.5343 28.53 13.28C28.3098 13.0326 28.1185 12.7608 27.96 12.47C27.9 12.36 27.83 12.17 27.91 12.05C27.919 12.0148 27.9379 11.9829 27.9645 11.958C27.9911 11.9332 28.0242 11.9166 28.06 11.91C28.2 11.8 28.58 11.91 28.71 12.01C29.0629 12.1429 29.3986 12.3175 29.71 12.53C29.86 12.63 30.01 12.83 30.2 12.88H30.42C30.75 12.95 31.13 12.88 31.42 12.99C31.9447 13.167 32.4453 13.4088 32.91 13.71C34.2842 14.5868 35.4021 15.8116 36.15 17.26C36.28 17.5 36.33 17.72 36.44 17.97C36.66 18.48 36.93 18.97 37.15 19.5C37.3464 19.9884 37.5945 20.4544 37.89 20.89C38.04 21.1 38.67 21.22 38.95 21.33C39.23 21.44 39.48 21.51 39.66 21.62C40.02 21.84 40.37 22.09 40.66 22.33C40.83 22.46 41.35 22.71 41.38 22.92" fill="white"/>
<path fill-rule="evenodd" clip-rule="evenodd" d="M30.84 13.91C30.6984 13.9088 30.5573 13.9256 30.42 13.96C30.5187 14.1116 30.629 14.2554 30.75 14.39C30.84 14.55 30.91 14.72 30.99 14.88C31.0687 14.8199 31.1303 14.7403 31.1689 14.6491C31.2075 14.5579 31.2216 14.4583 31.21 14.36C31.1663 14.2922 31.1262 14.2221 31.09 14.15C31.02 14.04 30.89 13.99 30.8 13.91" fill="white"/>
<path d="M42.43 34.4101H42.64V33.3501H42.32L42.06 34.0701L41.77 33.3501H41.46V34.4101H41.66V33.6101L41.96 34.4101H42.12L42.42 33.6101L42.43 34.4101ZM40.69 34.4101H40.92V33.5301H41.22V33.3501H40.38V33.5301H40.69V34.4101Z" fill="white"/>
</svg>
