<svg width="48" height="48" viewBox="0 0 48 48" fill="none" xmlns="http://www.w3.org/2000/svg">
<path d="M11.3489 17.19H20.3829V17.9046H12.177V23.2828H19.8935V23.9974H12.177V29.9021H20.477V30.6167H11.3489V17.19ZM21.1922 17.19H22.152L26.4055 23.0947L30.7531 17.19L36.6665 9.6897L26.9513 23.7153L31.9576 30.6167H30.9601L26.4055 24.3359L21.8321 30.6167H20.8534L25.8974 23.7153L21.1922 17.19ZM32.3152 17.9046V17.19H42.6102V17.9046H37.8673V30.6167H37.0392V17.9046H32.3152Z" fill="white"/>
<path d="M0.0470505 17.1899H1.08219L15.3562 38.447L9.45743 30.6166L0.912805 18.2054L0.875164 30.6166H0.0470505V17.1899Z" fill="white"/>
<path d="M42.5267 29.6864C42.698 29.6864 42.8228 29.5559 42.8228 29.3873C42.8228 29.2187 42.698 29.0883 42.5267 29.0883C42.3576 29.0883 42.2307 29.2187 42.2307 29.3873C42.2307 29.5559 42.3576 29.6864 42.5267 29.6864ZM43.3405 28.8996C43.3405 29.3974 43.701 29.7225 44.2267 29.7225C44.7866 29.7225 45.125 29.3873 45.125 28.8053V26.756H44.6738V28.8033C44.6738 29.1264 44.5107 29.299 44.2227 29.299C43.9649 29.299 43.7896 29.1385 43.7836 28.8996H43.3405ZM45.7152 28.8735C45.7474 29.3914 46.1804 29.7225 46.825 29.7225C47.5138 29.7225 47.9448 29.3753 47.9448 28.8213C47.9448 28.3858 47.6991 28.145 47.1029 28.0065L46.7827 27.9282C46.404 27.8399 46.2509 27.7215 46.2509 27.5147C46.2509 27.2538 46.4886 27.0832 46.8451 27.0832C47.1835 27.0832 47.4171 27.2498 47.4594 27.5167H47.8985C47.8723 27.029 47.4413 26.6858 46.8512 26.6858C46.2167 26.6858 45.7937 27.029 45.7937 27.5448C45.7937 27.9703 46.0334 28.2232 46.5591 28.3457L46.9337 28.436C47.3184 28.5263 47.4876 28.6588 47.4876 28.8795C47.4876 29.1365 47.2218 29.3231 46.8592 29.3231C46.4705 29.3231 46.2006 29.1485 46.1623 28.8735H45.7152Z" fill="white"/>
</svg>
