<svg width="48" height="48" viewBox="0 0 48 48" fill="none" xmlns="http://www.w3.org/2000/svg">
<path d="M34.61 21.33C34.38 21.1767 34.1216 21.0713 33.85 21.02C33.544 20.9574 33.2323 20.9273 32.92 20.93H32.71C32.71 21.02 32.65 21.26 32.58 21.65L32.27 23.37C32.27 23.61 32.18 23.93 32.11 24.37C32.04 24.81 32 25 32 25.16C32.3353 25.1586 32.6699 25.1285 33 25.07C33.2927 25.0175 33.578 24.9302 33.85 24.81C34.2101 24.6338 34.5301 24.3853 34.79 24.08C35.0387 23.7448 35.2002 23.353 35.26 22.94C35.3347 22.607 35.3103 22.2594 35.19 21.94C35.0666 21.68 34.8634 21.4663 34.61 21.33ZM16.86 21.33C16.6296 21.1733 16.3718 21.0613 16.1 21C15.7939 20.9384 15.4823 20.9083 15.17 20.91H15C15 21 14.94 21.24 14.87 21.63C14.8 22.02 14.7 22.63 14.57 23.35C14.57 23.59 14.47 23.91 14.4 24.35C14.33 24.79 14.29 25.03 14.26 25.18C14.5953 25.1795 14.93 25.1494 15.26 25.09C15.5527 25.0375 15.838 24.9502 16.11 24.83C16.4701 24.6538 16.7901 24.4053 17.05 24.1C17.3061 23.768 17.4715 23.3751 17.53 22.96C17.6015 22.626 17.5737 22.2784 17.45 21.96C17.3252 21.6927 17.1185 21.4721 16.86 21.33Z" fill="white"/>
<path d="M16.86 21.33C16.6296 21.1733 16.3718 21.0613 16.1 21C15.7939 20.9384 15.4823 20.9083 15.17 20.91H15C15 21 14.94 21.24 14.87 21.63C14.8 22.02 14.7 22.63 14.57 23.35C14.57 23.59 14.47 23.91 14.4 24.35C14.33 24.79 14.29 25.03 14.26 25.18C14.5953 25.1795 14.93 25.1494 15.26 25.09C15.5527 25.0375 15.838 24.9502 16.11 24.83C16.4701 24.6538 16.7901 24.4053 17.05 24.1C17.3061 23.768 17.4715 23.3751 17.53 22.96C17.6015 22.626 17.5737 22.2784 17.45 21.96C17.3252 21.6927 17.1185 21.4721 16.86 21.33ZM34.61 21.33C34.38 21.1767 34.1216 21.0713 33.85 21.02C33.544 20.9574 33.2323 20.9273 32.92 20.93H32.71C32.71 21.02 32.65 21.26 32.58 21.65L32.27 23.37C32.27 23.61 32.18 23.93 32.11 24.37C32.04 24.81 32 25 32 25.16C32.3353 25.1586 32.6699 25.1285 33 25.07C33.2927 25.0175 33.578 24.9302 33.85 24.81C34.2101 24.6338 34.5301 24.3853 34.79 24.08C35.0387 23.7448 35.2002 23.353 35.26 22.94C35.3347 22.607 35.3103 22.2594 35.19 21.94C35.0666 21.68 34.8634 21.4663 34.61 21.33Z" fill="white"/>
<path d="M24 4.75C20.3683 4.75 16.8182 5.82705 13.7987 7.84491C10.7792 9.86278 8.42595 12.7308 7.03662 16.0862C5.64729 19.4417 5.28428 23.1338 5.99352 26.6955C6.70275 30.2573 8.45237 33.5287 11.0211 36.096C13.5898 38.6633 16.8621 40.4111 20.4243 41.1184C23.9864 41.8257 27.6783 41.4607 31.033 40.0696C34.3877 38.6784 37.2544 36.3236 39.2706 33.303C41.2869 30.2824 42.362 26.7317 42.36 23.1C42.3573 18.2324 40.4218 13.565 36.9789 10.124C33.5361 6.68298 28.8676 4.75 24 4.75ZM19.69 22.81C19.59 23.4958 19.3067 24.1418 18.87 24.68C18.4336 25.1877 17.8997 25.6025 17.3 25.9C16.7895 26.1479 16.248 26.3262 15.69 26.43C15.1504 26.5414 14.601 26.5984 14.05 26.6L13.5 29.89H11.31C11.31 29.66 11.46 28.99 11.66 27.89C11.86 26.79 12.08 25.55 12.31 24.21C12.42 23.56 12.55 22.81 12.69 21.95C12.83 21.09 12.99 20.2 13.14 19.3H14.32C15.0822 19.2874 15.8442 19.3309 16.6 19.43C17.1775 19.5083 17.7382 19.6806 18.26 19.94C18.789 20.1916 19.2211 20.6096 19.49 21.13C19.7309 21.6553 19.8008 22.2429 19.69 22.81ZM28.51 21.4C28.41 21.98 28.32 22.46 28.25 22.84L28.07 23.84C28 24.28 27.91 24.84 27.82 25.39C27.73 25.94 27.65 26.39 27.61 26.66H25.42C25.42 26.46 25.53 26.01 25.67 25.28C25.81 24.55 25.89 24.07 25.93 23.81C25.97 23.55 26.02 23.3 26.07 22.99C26.12 22.68 26.16 22.41 26.2 22.19C26.2929 21.8586 26.2681 21.5052 26.13 21.19C26.0519 21.0839 25.9465 21.0009 25.825 20.9498C25.7035 20.8988 25.5705 20.8816 25.44 20.9C25.1487 20.9126 24.8615 20.9735 24.59 21.08C24.2462 21.2017 23.912 21.3488 23.59 21.52L22.73 26.63H20.53C20.59 26.29 20.71 25.63 20.9 24.56C21.09 23.49 21.29 22.38 21.5 21.14C21.61 20.49 21.74 19.74 21.88 18.9C22.02 18.06 22.18 17.13 22.35 16.14H24.54L23.84 20C24.3324 19.7523 24.8441 19.545 25.37 19.38C25.8131 19.2358 26.2743 19.155 26.74 19.14C27.0143 19.1182 27.2899 19.1622 27.5438 19.2683C27.7978 19.3744 28.0227 19.5395 28.2 19.75C28.3682 19.9861 28.483 20.256 28.5365 20.5409C28.59 20.8258 28.581 21.1189 28.51 21.4ZM36.62 24.68C36.1896 25.1898 35.6585 25.6052 35.06 25.9C34.546 26.1479 34.0012 26.3261 33.44 26.43C32.9038 26.5418 32.3577 26.5988 31.81 26.6L31.26 29.89H29.06L29.42 27.89C29.62 26.78 29.84 25.55 30.07 24.21C30.18 23.56 30.31 22.81 30.45 21.95C30.59 21.09 30.74 20.2 30.89 19.3H32.08C32.8421 19.2881 33.6041 19.3316 34.36 19.43C34.9372 19.5097 35.4977 19.6819 36.02 19.94C36.5484 20.189 36.9779 20.608 37.24 21.13C37.4934 21.6586 37.5671 22.2556 37.45 22.83C37.3431 23.5096 37.0566 24.1483 36.62 24.68Z" fill="white"/>
<path d="M17.47 22.9401C17.4144 23.3543 17.2525 23.747 17 24.0801C16.7401 24.3853 16.4201 24.6338 16.06 24.8101C15.788 24.9303 15.5027 25.0176 15.21 25.0701C14.88 25.1295 14.5453 25.1596 14.21 25.1601C14.21 25.0101 14.29 24.7301 14.35 24.3301C14.41 23.9301 14.47 23.6101 14.52 23.3301C14.65 22.5701 14.75 21.9901 14.82 21.6101C14.89 21.2301 14.94 20.9801 14.95 20.8901H15.17C15.4823 20.8883 15.7939 20.9185 16.1 20.9801C16.3704 21.0353 16.6281 21.1404 16.86 21.2901C17.101 21.4496 17.2862 21.6803 17.39 21.9501C17.5117 22.2654 17.5395 22.6093 17.47 22.9401ZM35.22 22.9401C35.1602 23.3531 34.9987 23.7448 34.75 24.0801C34.4901 24.3853 34.1701 24.6338 33.81 24.8101C33.538 24.9303 33.2527 25.0176 32.96 25.0701C32.6298 25.1286 32.2953 25.1587 31.96 25.1601C31.96 25.0101 32.03 24.7301 32.1 24.3301C32.17 23.9301 32.22 23.6101 32.26 23.3301C32.39 22.5701 32.49 21.9901 32.57 21.6101C32.65 21.2301 32.68 20.9801 32.7 20.8901H32.91C33.2223 20.8873 33.534 20.9175 33.84 20.9801C34.1116 21.0314 34.37 21.1368 34.6 21.2901C34.8466 21.4459 35.036 21.6775 35.14 21.9501C35.2617 22.2654 35.2895 22.6093 35.22 22.9401Z" fill="white"/>
</svg>
