<svg width="48" height="48" viewBox="0 0 48 48" fill="none" xmlns="http://www.w3.org/2000/svg">
<g clip-path="url(#clip0_64_333)">
<path d="M35.5499 34.9428C35.8552 32.3992 35.7637 32.0262 37.6583 32.4383L38.1393 32.4805C39.596 32.5468 41.5016 32.2462 42.6212 31.7261C45.0312 30.6079 46.4603 28.7408 44.0839 29.2314C38.6632 30.3496 38.2906 28.5142 38.2906 28.5142C44.0145 20.0214 46.4072 9.24057 44.3419 6.60165C38.7086 -0.596359 28.9576 2.80742 28.7944 2.89579L28.7425 2.90538C27.6714 2.68316 26.4728 2.55038 25.1263 2.52861C22.6733 2.4883 20.8119 3.17169 19.4 4.24262C19.4 4.24262 2.00467 -2.92403 2.81394 13.2554C2.98605 16.6972 7.74744 39.2992 13.4263 32.4723C15.5019 29.976 17.5077 27.8653 17.5077 27.8653C18.5038 28.527 19.6963 28.8645 20.947 28.7433L21.0436 28.6608C21.0134 28.9708 21.0267 29.274 21.0823 29.6328C19.6196 31.2674 20.0494 31.5544 17.1246 32.1564C14.1655 32.7663 15.904 33.8521 17.0387 34.1359C18.4147 34.48 21.598 34.9675 23.7495 31.9563L23.6638 32.2999C24.2377 32.759 24.1989 35.5998 24.2803 37.6294C24.3617 39.6592 24.4976 41.5533 24.9114 42.6701C25.3251 43.7866 25.8133 46.663 29.6572 45.8392C32.8698 45.1508 35.3261 44.16 35.5499 34.9428Z" stroke="black" stroke-width="4.03018"/>
<path d="M44.0844 29.2313C38.6632 30.3496 38.2906 28.5141 38.2906 28.5141C44.0145 20.0208 46.4072 9.23975 44.3423 6.60116C38.709 -0.59642 28.9576 2.80757 28.7948 2.89595L28.7425 2.90532C27.6714 2.68299 26.4728 2.55053 25.1256 2.52855C22.6726 2.48835 20.8119 3.17163 19.4 4.24235C19.4 4.24235 2.00435 -2.92398 2.8134 13.2554C2.98551 16.6974 7.74679 39.2993 13.4259 32.4725C15.5016 29.9761 17.5071 27.8654 17.5071 27.8654C18.5032 28.5271 19.6957 28.8647 20.9459 28.7434L21.043 28.661C21.0128 28.9709 21.0266 29.2741 21.0819 29.633C19.6189 31.2676 20.0488 31.5546 17.1242 32.1566C14.1648 32.7665 15.9033 33.8523 17.0384 34.136C18.4144 34.4802 21.5979 34.9676 23.7489 31.9565L23.6632 32.3C24.2364 32.7591 24.6389 35.2865 24.5715 37.5775C24.504 39.8687 24.4589 41.4416 24.9106 42.6702C25.3623 43.8988 25.8125 46.6632 29.6571 45.8394C32.8697 45.1509 34.5345 43.3669 34.7661 40.3909C34.9304 38.2753 35.3024 38.588 35.3259 36.6965L35.6242 35.801C35.9682 32.9331 35.6788 32.0079 37.658 32.4382L38.139 32.4804C39.5958 32.5467 41.5024 32.2461 42.6214 31.726C45.031 30.6078 46.46 28.7407 44.0842 29.2313H44.0844Z" stroke="white" stroke-width="1.34339" stroke-linecap="round" stroke-linejoin="round"/>
<path d="M23.9817 30.8752C23.8325 36.2117 24.0192 41.5853 24.5414 42.8913C25.0639 44.1973 26.182 46.7375 30.027 45.9138C33.2393 45.2251 34.4081 43.8924 34.9152 40.9508C35.2888 38.7865 36.0089 32.7758 36.1013 31.5443" stroke="white" stroke-width="1.34339" stroke-linecap="round" stroke-linejoin="round"/>
<path d="M19.3732 4.12306C19.3732 4.12306 1.96566 -2.99164 2.77493 13.1877C2.94704 16.6297 7.70864 39.2324 13.3876 32.4052C15.4629 29.9086 17.3397 27.9505 17.3397 27.9505" stroke="white" stroke-width="1.34339" stroke-linecap="round" stroke-linejoin="round"/>
<path d="M28.7758 2.8245C28.1732 3.01343 38.4589 -0.935568 44.3044 6.53371C46.3692 9.17241 43.9764 19.9534 38.2526 28.447" stroke="white" stroke-width="1.34339" stroke-linecap="round" stroke-linejoin="round"/>
<path d="M38.2525 28.447C38.2525 28.447 38.6255 30.283 44.0468 29.164C46.4221 28.6734 44.9926 30.5407 42.5836 31.6595C40.6065 32.577 36.1739 32.8122 36.1015 31.5443C35.9152 28.2728 38.4343 29.2667 38.2525 28.447ZM38.2525 28.447C38.0882 27.7088 36.9616 26.9842 36.2164 25.1774C35.5658 23.6004 27.2933 11.5066 38.5105 13.3027C38.9215 13.2177 35.5849 2.63302 25.0872 2.46091C14.5917 2.2888 14.9361 15.368 14.9361 15.368" stroke="white" stroke-width="1.34339" stroke-linecap="round" stroke-linejoin="bevel"/>
<path d="M21.0436 29.5657C19.5804 31.2002 20.0107 31.4872 17.0859 32.0894C14.1266 32.6994 15.8653 33.785 17 34.0686C18.3761 34.413 21.5595 34.9004 23.7106 31.8885C24.3656 30.9715 23.7067 29.5082 22.8069 29.1352C22.3721 28.9552 21.7908 28.7295 21.0436 29.5657Z" stroke="white" stroke-width="1.34339" stroke-linecap="round" stroke-linejoin="round"/>
<path d="M20.9478 29.5371C20.8004 28.5761 21.2636 27.4325 21.76 26.0946C22.506 24.0872 24.2272 22.0796 22.8503 15.7119C21.824 10.9668 14.9403 14.7244 14.936 15.3678C14.9318 16.011 15.2473 18.629 14.821 21.6777C14.2646 25.6559 17.3523 29.0204 20.9078 28.6762" stroke="white" stroke-width="1.34339" stroke-linecap="round" stroke-linejoin="round"/>
<path d="M19.3099 15.2714C19.2789 15.4912 19.7122 16.0776 20.2773 16.1559C20.8413 16.2346 21.3242 15.7763 21.3548 15.5568C21.3854 15.3371 20.9526 15.095 20.3873 15.0163C19.8229 14.9375 19.3399 15.0522 19.31 15.2714H19.3099Z" fill="white" stroke="white" stroke-width="0.447794"/>
<path d="M36.4914 14.8234C36.522 15.0431 36.0892 15.6295 35.5241 15.7079C34.9595 15.7865 34.4767 15.3283 34.4458 15.1088C34.4159 14.889 34.8489 14.647 35.4135 14.5683C35.9781 14.4896 36.4608 14.6042 36.4914 14.8235V14.8234Z" fill="white" stroke="white" stroke-width="0.223897"/>
<path d="M38.5105 13.3027C38.6035 15.0264 38.1392 16.2005 38.0807 18.0355C37.9941 20.7026 39.3523 23.7554 37.3057 26.8119" stroke="white" stroke-width="1.34339" stroke-linecap="round" stroke-linejoin="round"/>
</g>
<defs>
<clipPath id="clip0_64_333">
<rect width="48" height="48" fill="white"/>
</clipPath>
</defs>
</svg>
