<svg width="48" height="48" viewBox="0 0 48 48" fill="none" xmlns="http://www.w3.org/2000/svg">
<path d="M35.93 18.2099L34.73 17.8299C34.8 17.5599 34.86 17.2899 34.92 17.0199C35.82 12.6399 35.23 9.10988 33.22 7.94988C31.21 6.78988 28.13 7.94988 24.94 10.7799C24.63 11.0399 24.32 11.3299 24.02 11.6199L23.4 11.0599C20.06 8.05988 16.71 6.83988 14.7 7.99988C12.69 9.15988 12.2 12.4299 13 16.5799C13.08 16.9799 13.17 17.3899 13.27 17.8099C12.8 17.9399 12.34 18.0899 11.9 18.2399C7.99999 19.6099 5.48999 21.7499 5.48999 23.9999C5.48999 26.2499 8.17999 28.5899 12.26 29.9999C12.58 30.1099 12.92 30.2099 13.26 30.3099C13.15 30.7599 13.05 31.1999 12.97 31.6299C12.2 35.7099 12.8 38.9499 14.73 40.0599C16.66 41.1699 20.05 40.0599 23.3 37.1899L24.07 36.4699C24.4 36.7999 24.74 37.0999 25.07 37.3899C28.21 40.0899 31.32 41.1899 33.24 40.0699C35.16 38.9499 35.87 35.4499 35.04 31.2199C34.97 30.8899 34.9 30.5599 34.81 30.2199L35.5 29.9999C39.75 28.5999 42.5 26.3199 42.5 23.9999C42.5 21.6799 39.92 19.5799 35.93 18.2099ZM35 28.4699L34.37 28.6699C33.8596 27.0718 33.238 25.5113 32.51 23.9999C33.215 22.5029 33.8164 20.9593 34.31 19.3799C34.69 19.4899 35.06 19.5999 35.41 19.7199C38.84 20.8999 40.93 22.6499 40.93 23.9899C40.93 25.3299 38.67 27.2599 35 28.4699ZM33.48 31.4699C33.8386 33.0753 33.8962 34.7334 33.65 36.3599C33.6162 36.8056 33.4914 37.2397 33.2833 37.6353C33.0752 38.0308 32.7882 38.3796 32.44 38.6599C31.27 39.3299 28.78 38.4499 26.09 36.1399C25.78 35.8699 25.47 35.5899 25.16 35.2899C26.2787 34.046 27.3143 32.7298 28.26 31.3499C29.942 31.2055 31.6125 30.9483 33.26 30.5799C33.36 30.8899 33.43 31.1899 33.49 31.4799L33.48 31.4699ZM18.11 38.5499C17.7075 38.7411 17.2705 38.8485 16.8253 38.8657C16.38 38.8829 15.936 38.8095 15.52 38.6499C14.35 37.9699 13.86 35.3699 14.52 31.8899C14.5933 31.4899 14.6833 31.0799 14.79 30.6599C16.4383 31.0135 18.1089 31.2541 19.79 31.3799C20.7749 32.7571 21.8471 34.0698 23 35.3099L22.3 35.9599C21.0732 37.0718 19.6531 37.9496 18.11 38.5499ZM12.77 28.4599C11.2047 27.9681 9.74361 27.1918 8.45999 26.1699C8.09419 25.9203 7.78253 25.5995 7.54368 25.2266C7.30484 24.8538 7.14372 24.4365 7.06999 23.9999C7.06999 22.6499 9.06999 20.9299 12.43 19.7599C12.84 19.6199 13.27 19.4899 13.71 19.3599C14.2084 20.9441 14.8097 22.494 15.51 23.9999C14.7955 25.5363 14.1874 27.1201 13.69 28.7399C13.37 28.6599 13.07 28.5599 12.77 28.4599ZM14.56 16.2799C13.87 12.7199 14.33 10.0399 15.49 9.36988C16.65 8.69988 19.49 9.67988 22.35 12.2399C22.54 12.3999 22.72 12.5699 22.91 12.7499C21.7739 13.978 20.7216 15.2809 19.76 16.6499C18.0982 16.7975 16.4479 17.0547 14.82 17.4199C14.72 16.9999 14.64 16.6499 14.56 16.2799ZM30.56 20.2199C30.1973 19.5948 29.8206 18.9779 29.43 18.3699C30.61 18.5199 31.75 18.7199 32.81 18.9599C32.49 19.9599 32.09 21.0499 31.62 22.1499C31.26 21.5099 30.9 20.8699 30.53 20.2199H30.56ZM24 13.8799C24.7709 14.7189 25.4986 15.5967 26.18 16.5099C25.45 16.5099 24.72 16.4599 23.98 16.4599C23.24 16.4599 22.52 16.4599 21.8 16.5099C22.54 15.5599 23.28 14.6799 24 13.8799ZM17.45 20.2299C17.0833 20.8965 16.75 21.5365 16.45 22.1499C16.0077 21.0985 15.6139 20.0274 15.27 18.9399C16.33 18.7099 17.46 18.5099 18.63 18.3699C18.24 18.9699 17.86 19.5999 17.5 20.2299H17.45ZM18.61 29.6799C17.4644 29.5573 16.3261 29.3737 15.2 29.1299C15.53 28.0799 15.93 26.9799 16.4 25.8699C16.73 26.5099 17.08 27.1499 17.4 27.7799C17.85 28.4299 18.23 29.0599 18.63 29.6799H18.61ZM24.04 34.1699C23.2519 33.3183 22.5076 32.4271 21.81 31.4999C22.52 31.4999 23.25 31.5499 23.98 31.5499C24.71 31.5499 25.48 31.5499 26.21 31.4999C25.5407 32.4271 24.8231 33.3183 24.06 34.1699H24.04ZM31.59 25.8099C32.058 26.8749 32.4719 27.963 32.83 29.0699C31.6911 29.3241 30.5394 29.5177 29.38 29.6499C29.76 29.0399 30.14 28.4199 30.51 27.7699C30.88 27.1199 31.27 26.4599 31.61 25.8099H31.59ZM29.17 26.9999C28.59 27.9999 27.99 28.9999 27.39 29.8699C26.29 29.9399 25.16 29.9799 24 29.9799C22.84 29.9799 21.73 29.9799 20.65 29.8799C20 28.9399 19.41 27.9999 18.84 26.9999C18.27 25.9999 17.74 24.9999 17.26 23.9999C17.74 22.9999 18.26 21.9999 18.83 20.9999C19.41 20.0132 20.01 19.0632 20.63 18.1499C21.73 18.0599 22.86 18.0199 24 18.0199C25.15 18.0199 26.28 18.0199 27.38 18.1499C27.99 19.0499 28.59 19.9999 29.16 20.9899C29.73 21.9799 30.27 22.9899 30.76 23.9899C30.2533 24.9832 29.7233 25.9865 29.17 26.9999ZM32.43 9.31988C33.67 10.0399 34.15 12.9199 33.37 16.6999C33.37 16.9399 33.26 17.1899 33.2 17.4399C31.5529 17.0648 29.8825 16.8009 28.2 16.6499C27.2466 15.2829 26.2044 13.9801 25.08 12.7499C25.36 12.4799 25.64 12.2199 25.93 11.9699C28.71 9.58988 31.26 8.64988 32.43 9.31988Z" fill="white"/>
<path d="M24 27.2799C25.8281 27.2799 27.31 25.798 27.31 23.9699C27.31 22.1418 25.8281 20.6599 24 20.6599C22.1719 20.6599 20.69 22.1418 20.69 23.9699C20.69 25.798 22.1719 27.2799 24 27.2799Z" fill="white"/>
</svg>
