<svg width="48" height="48" viewBox="0 0 48 48" fill="none" xmlns="http://www.w3.org/2000/svg">
<path d="M45.8672 6.51172C45.6892 6.20081 45.3583 6.00928 45 6.00977L35.02 6.00403L35.0059 6L27.0059 5.94727H27C26.6469 5.94678 26.3199 6.1333 26.1406 6.4375L23.996 10.0488L21.8574 6.48633C21.679 6.18665 21.3567 6.0022 21.0078 6L13.0078 5.94531H13C12.9307 5.95605 12.8628 5.97449 12.7975 6H3C2.448 5.99988 2.00037 6.44727 2.00012 6.99927C2.00012 7.17664 2.04724 7.35083 2.13672 7.50391L23.1367 43.5039C23.4146 43.9807 24.0262 44.142 24.5031 43.8641C24.6522 43.7772 24.7764 43.6531 24.8633 43.5039L45.8633 7.51367C46.0442 7.20459 46.0457 6.82227 45.8672 6.51172ZM20.4316 7.99609L23.1426 12.5137C23.3229 12.8154 23.6486 13.0001 24 13C24.3523 12.9991 24.6799 12.8129 24.8594 12.5098L27.5664 7.95117L33.2246 7.98828L27.2139 17.8241L24.0016 23.0795L14.7871 7.95703L20.4316 7.99609ZM24 41.0156L4.74023 8H12.4395L23.1465 25.5215C23.2238 25.6354 23.3241 25.7319 23.4409 25.8047C23.4675 25.8234 23.4827 25.8561 23.5109 25.8719C23.9799 26.1353 24.5731 25.9805 24.8536 25.5215L35.5605 8.00403L43.2598 8.00806L24 41.0156Z" fill="white"/>
</svg>
